<svg width="388" height="75" viewBox="0 0 388 75" fill="none" xmlns="http://www.w3.org/2000/svg">
<g clip-path="url(#clip0_3155_640)">
<path opacity="0.75" d="M347.904 20.172C348.048 20.172 348.16 20.208 348.24 20.28C348.32 20.352 348.36 20.452 348.36 20.58C348.36 20.716 348.32 20.82 348.24 20.892C348.168 20.964 348.056 21 347.904 21H343.932C343.78 21 343.664 20.964 343.584 20.892C343.512 20.82 343.476 20.716 343.476 20.58C343.476 20.452 343.516 20.352 343.596 20.28C343.676 20.208 343.788 20.172 343.932 20.172H345.42V13.74L344.112 14.592C344.048 14.632 343.984 14.652 343.92 14.652C343.808 14.652 343.708 14.6 343.62 14.496C343.54 14.392 343.5 14.28 343.5 14.16C343.5 13.992 343.564 13.872 343.692 13.8L345.516 12.612C345.652 12.524 345.792 12.48 345.936 12.48C346.072 12.48 346.184 12.524 346.272 12.612C346.36 12.7 346.404 12.824 346.404 12.984V20.172H347.904ZM350.575 16.38C350.383 16.38 350.223 16.32 350.095 16.2C349.967 16.072 349.903 15.908 349.903 15.708C349.903 15.508 349.967 15.348 350.095 15.228C350.223 15.1 350.383 15.036 350.575 15.036C350.759 15.036 350.911 15.1 351.031 15.228C351.159 15.348 351.223 15.508 351.223 15.708C351.223 15.908 351.159 16.072 351.031 16.2C350.911 16.32 350.759 16.38 350.575 16.38ZM350.575 21.06C350.383 21.06 350.223 21 350.095 20.88C349.967 20.752 349.903 20.588 349.903 20.388C349.903 20.188 349.967 20.024 350.095 19.896C350.223 19.768 350.383 19.704 350.575 19.704C350.759 19.704 350.911 19.768 351.031 19.896C351.159 20.024 351.223 20.188 351.223 20.388C351.223 20.588 351.159 20.752 351.031 20.88C350.911 21 350.759 21.06 350.575 21.06ZM355.538 21.096C354.57 21.096 353.834 20.728 353.33 19.992C352.826 19.256 352.574 18.184 352.574 16.776C352.574 15.36 352.826 14.284 353.33 13.548C353.834 12.812 354.57 12.444 355.538 12.444C356.506 12.444 357.242 12.812 357.746 13.548C358.25 14.276 358.502 15.348 358.502 16.764C358.502 18.18 358.25 19.256 357.746 19.992C357.242 20.728 356.506 21.096 355.538 21.096ZM355.538 20.268C356.21 20.268 356.706 19.984 357.026 19.416C357.346 18.848 357.506 17.964 357.506 16.764C357.506 15.556 357.346 14.672 357.026 14.112C356.714 13.552 356.218 13.272 355.538 13.272C354.866 13.272 354.37 13.556 354.05 14.124C353.73 14.684 353.57 15.564 353.57 16.764C353.57 17.964 353.73 18.848 354.05 19.416C354.37 19.984 354.866 20.268 355.538 20.268ZM363.861 16.656C364.373 16.8 364.761 17.048 365.025 17.4C365.297 17.752 365.433 18.188 365.433 18.708C365.433 19.444 365.185 20.024 364.689 20.448C364.193 20.872 363.517 21.084 362.661 21.084C362.141 21.084 361.641 20.996 361.161 20.82C360.689 20.644 360.289 20.404 359.961 20.1C359.833 19.98 359.769 19.844 359.769 19.692C359.769 19.572 359.801 19.472 359.865 19.392C359.929 19.312 360.005 19.272 360.093 19.272C360.205 19.272 360.317 19.316 360.429 19.404C360.797 19.7 361.157 19.916 361.509 20.052C361.861 20.188 362.241 20.256 362.649 20.256C363.241 20.256 363.689 20.12 363.993 19.848C364.305 19.576 364.461 19.184 364.461 18.672C364.461 17.64 363.813 17.124 362.517 17.124H361.881C361.753 17.124 361.649 17.084 361.569 17.004C361.497 16.916 361.461 16.816 361.461 16.704C361.461 16.592 361.497 16.496 361.569 16.416C361.649 16.336 361.753 16.296 361.881 16.296H362.325C362.949 16.296 363.429 16.16 363.765 15.888C364.101 15.608 364.269 15.208 364.269 14.688C364.269 14.232 364.133 13.884 363.861 13.644C363.589 13.396 363.205 13.272 362.709 13.272C362.333 13.272 361.969 13.344 361.617 13.488C361.265 13.624 360.913 13.836 360.561 14.124C360.449 14.212 360.337 14.256 360.225 14.256C360.137 14.256 360.061 14.216 359.997 14.136C359.933 14.056 359.901 13.956 359.901 13.836C359.901 13.684 359.965 13.548 360.093 13.428C360.421 13.124 360.817 12.884 361.281 12.708C361.753 12.532 362.237 12.444 362.733 12.444C363.501 12.444 364.113 12.64 364.569 13.032C365.025 13.424 365.249 13.952 365.241 14.616C365.233 15.096 365.105 15.516 364.857 15.876C364.617 16.236 364.285 16.496 363.861 16.656ZM370.958 21.06C370.806 21.06 370.686 21.016 370.598 20.928C370.51 20.832 370.466 20.708 370.466 20.556V13.02C370.466 12.876 370.51 12.76 370.598 12.672C370.694 12.584 370.818 12.54 370.97 12.54H373.814C374.702 12.54 375.39 12.756 375.878 13.188C376.374 13.62 376.622 14.232 376.622 15.024C376.622 15.816 376.374 16.432 375.878 16.872C375.382 17.312 374.694 17.532 373.814 17.532H371.45V20.556C371.45 20.708 371.406 20.832 371.318 20.928C371.23 21.016 371.11 21.06 370.958 21.06ZM373.718 16.716C375.006 16.716 375.65 16.152 375.65 15.024C375.65 13.912 375.006 13.356 373.718 13.356H371.45V16.716H373.718ZM385.712 12.48C385.864 12.48 385.98 12.528 386.06 12.624C386.148 12.712 386.192 12.832 386.192 12.984V20.58C386.192 20.724 386.152 20.84 386.072 20.928C385.992 21.016 385.88 21.06 385.736 21.06C385.592 21.06 385.484 21.016 385.412 20.928C385.34 20.84 385.304 20.724 385.304 20.58V14.448L382.7 19.44C382.588 19.672 382.424 19.788 382.208 19.788C382 19.788 381.836 19.672 381.716 19.44L379.1 14.508V20.58C379.1 20.724 379.06 20.84 378.98 20.928C378.908 21.016 378.8 21.06 378.656 21.06C378.512 21.06 378.4 21.016 378.32 20.928C378.24 20.84 378.2 20.724 378.2 20.58V12.984C378.2 12.832 378.244 12.712 378.332 12.624C378.42 12.528 378.54 12.48 378.692 12.48C378.892 12.48 379.052 12.596 379.172 12.828L382.22 18.672L385.232 12.828C385.296 12.7 385.364 12.612 385.436 12.564C385.516 12.508 385.608 12.48 385.712 12.48Z" fill="#234CAD"/>
<g clip-path="url(#clip1_3155_640)">
<path d="M101.92 57.075C101.73 57.075 101.58 57.02 101.47 56.91C101.36 56.79 101.305 56.635 101.305 56.445V46.98C101.305 46.79 101.36 46.64 101.47 46.53C101.58 46.41 101.73 46.35 101.92 46.35C102.11 46.35 102.26 46.41 102.37 46.53C102.48 46.64 102.535 46.79 102.535 46.98V56.445C102.535 56.635 102.48 56.79 102.37 56.91C102.26 57.02 102.11 57.075 101.92 57.075ZM112.52 49.515C113.38 49.515 114.03 49.76 114.47 50.25C114.91 50.73 115.13 51.45 115.13 52.41V56.475C115.13 56.665 115.075 56.815 114.965 56.925C114.855 57.025 114.71 57.075 114.53 57.075C114.34 57.075 114.19 57.025 114.08 56.925C113.97 56.815 113.915 56.665 113.915 56.475V52.44C113.915 51.79 113.78 51.31 113.51 51C113.25 50.69 112.83 50.535 112.25 50.535C111.58 50.535 111.045 50.74 110.645 51.15C110.245 51.56 110.045 52.115 110.045 52.815V56.475C110.045 56.665 109.99 56.815 109.88 56.925C109.78 57.025 109.635 57.075 109.445 57.075C109.255 57.075 109.105 57.025 108.995 56.925C108.885 56.815 108.83 56.665 108.83 56.475V46.935C108.83 46.765 108.885 46.625 108.995 46.515C109.115 46.405 109.265 46.35 109.445 46.35C109.635 46.35 109.78 46.405 109.88 46.515C109.99 46.615 110.045 46.755 110.045 46.935V50.865C110.285 50.425 110.62 50.09 111.05 49.86C111.48 49.63 111.97 49.515 112.52 49.515ZM120.34 49.515C122.17 49.515 123.085 50.475 123.085 52.395V56.475C123.085 56.655 123.03 56.8 122.92 56.91C122.82 57.02 122.68 57.075 122.5 57.075C122.32 57.075 122.175 57.02 122.065 56.91C121.955 56.8 121.9 56.655 121.9 56.475V55.755C121.71 56.185 121.42 56.52 121.03 56.76C120.64 56.99 120.19 57.105 119.68 57.105C119.21 57.105 118.775 57.01 118.375 56.82C117.985 56.63 117.675 56.365 117.445 56.025C117.215 55.685 117.1 55.31 117.1 54.9C117.1 54.35 117.24 53.925 117.52 53.625C117.8 53.315 118.26 53.095 118.9 52.965C119.54 52.825 120.43 52.755 121.57 52.755H121.9V52.26C121.9 51.66 121.775 51.22 121.525 50.94C121.285 50.66 120.89 50.52 120.34 50.52C119.66 50.52 118.97 50.705 118.27 51.075C118 51.245 117.81 51.33 117.7 51.33C117.58 51.33 117.48 51.285 117.4 51.195C117.32 51.105 117.28 50.99 117.28 50.85C117.28 50.71 117.32 50.59 117.4 50.49C117.49 50.38 117.63 50.27 117.82 50.16C118.17 49.96 118.565 49.805 119.005 49.695C119.455 49.575 119.9 49.515 120.34 49.515ZM119.845 56.145C120.445 56.145 120.935 55.945 121.315 55.545C121.705 55.135 121.9 54.61 121.9 53.97V53.535H121.63C120.75 53.535 120.08 53.575 119.62 53.655C119.16 53.725 118.83 53.85 118.63 54.03C118.44 54.2 118.345 54.455 118.345 54.795C118.345 55.185 118.485 55.51 118.765 55.77C119.055 56.02 119.415 56.145 119.845 56.145ZM130.575 49.92C130.685 49.68 130.86 49.56 131.1 49.56C131.25 49.56 131.385 49.61 131.505 49.71C131.625 49.81 131.685 49.935 131.685 50.085C131.685 50.175 131.665 50.255 131.625 50.325L128.7 56.625C128.64 56.755 128.55 56.86 128.43 56.94C128.31 57.01 128.18 57.045 128.04 57.045C127.91 57.045 127.785 57.01 127.665 56.94C127.545 56.86 127.45 56.755 127.38 56.625L124.47 50.325C124.43 50.255 124.41 50.18 124.41 50.1C124.41 49.95 124.475 49.82 124.605 49.71C124.745 49.6 124.895 49.545 125.055 49.545C125.155 49.545 125.25 49.575 125.34 49.635C125.44 49.695 125.515 49.78 125.565 49.89L128.07 55.515L130.575 49.92ZM138.582 55.305C138.692 55.305 138.787 55.35 138.867 55.44C138.947 55.53 138.987 55.645 138.987 55.785C138.987 56.035 138.812 56.265 138.462 56.475C138.102 56.685 137.722 56.845 137.322 56.955C136.922 57.055 136.532 57.105 136.152 57.105C135.022 57.105 134.127 56.77 133.467 56.1C132.817 55.43 132.492 54.505 132.492 53.325C132.492 52.575 132.637 51.915 132.927 51.345C133.217 50.765 133.622 50.315 134.142 49.995C134.672 49.675 135.272 49.515 135.942 49.515C136.892 49.515 137.647 49.825 138.207 50.445C138.767 51.065 139.047 51.905 139.047 52.965C139.047 53.165 139.007 53.31 138.927 53.4C138.847 53.49 138.717 53.535 138.537 53.535H133.707C133.797 55.255 134.612 56.115 136.152 56.115C136.542 56.115 136.877 56.065 137.157 55.965C137.437 55.855 137.737 55.71 138.057 55.53C138.317 55.38 138.492 55.305 138.582 55.305ZM135.957 50.46C135.317 50.46 134.802 50.66 134.412 51.06C134.032 51.46 133.807 52.025 133.737 52.755H137.982C137.962 52.015 137.777 51.45 137.427 51.06C137.077 50.66 136.587 50.46 135.957 50.46ZM147.164 57.105C146.704 57.105 146.264 57.05 145.844 56.94C145.434 56.83 145.069 56.675 144.749 56.475C144.569 56.355 144.439 56.245 144.359 56.145C144.289 56.035 144.254 55.905 144.254 55.755C144.254 55.625 144.289 55.52 144.359 55.44C144.439 55.35 144.539 55.305 144.659 55.305C144.779 55.305 144.954 55.38 145.184 55.53C145.484 55.71 145.779 55.855 146.069 55.965C146.369 56.065 146.739 56.115 147.179 56.115C147.719 56.115 148.139 56.02 148.439 55.83C148.739 55.64 148.889 55.365 148.889 55.005C148.889 54.785 148.834 54.61 148.724 54.48C148.614 54.34 148.424 54.22 148.154 54.12C147.884 54.01 147.489 53.9 146.969 53.79C146.089 53.6 145.459 53.345 145.079 53.025C144.699 52.705 144.509 52.27 144.509 51.72C144.509 51.29 144.629 50.91 144.869 50.58C145.109 50.25 145.439 49.99 145.859 49.8C146.289 49.61 146.774 49.515 147.314 49.515C147.704 49.515 148.079 49.57 148.439 49.68C148.809 49.78 149.134 49.925 149.414 50.115C149.754 50.355 149.924 50.605 149.924 50.865C149.924 50.995 149.884 51.105 149.804 51.195C149.724 51.285 149.629 51.33 149.519 51.33C149.399 51.33 149.219 51.245 148.979 51.075C148.699 50.895 148.434 50.755 148.184 50.655C147.934 50.555 147.624 50.505 147.254 50.505C146.784 50.505 146.404 50.61 146.114 50.82C145.834 51.03 145.694 51.31 145.694 51.66C145.694 51.88 145.744 52.06 145.844 52.2C145.954 52.33 146.129 52.45 146.369 52.56C146.619 52.66 146.974 52.76 147.434 52.86C148.114 53.01 148.639 53.175 149.009 53.355C149.389 53.535 149.659 53.755 149.819 54.015C149.979 54.275 150.059 54.605 150.059 55.005C150.059 55.635 149.794 56.145 149.264 56.535C148.734 56.915 148.034 57.105 147.164 57.105ZM157.566 55.305C157.676 55.305 157.771 55.35 157.851 55.44C157.931 55.53 157.971 55.645 157.971 55.785C157.971 56.035 157.796 56.265 157.446 56.475C157.086 56.685 156.706 56.845 156.306 56.955C155.906 57.055 155.516 57.105 155.136 57.105C154.006 57.105 153.111 56.77 152.451 56.1C151.801 55.43 151.476 54.505 151.476 53.325C151.476 52.575 151.621 51.915 151.911 51.345C152.201 50.765 152.606 50.315 153.126 49.995C153.656 49.675 154.256 49.515 154.926 49.515C155.876 49.515 156.631 49.825 157.191 50.445C157.751 51.065 158.031 51.905 158.031 52.965C158.031 53.165 157.991 53.31 157.911 53.4C157.831 53.49 157.701 53.535 157.521 53.535H152.691C152.781 55.255 153.596 56.115 155.136 56.115C155.526 56.115 155.861 56.065 156.141 55.965C156.421 55.855 156.721 55.71 157.041 55.53C157.301 55.38 157.476 55.305 157.566 55.305ZM154.941 50.46C154.301 50.46 153.786 50.66 153.396 51.06C153.016 51.46 152.791 52.025 152.721 52.755H156.966C156.946 52.015 156.761 51.45 156.411 51.06C156.061 50.66 155.571 50.46 154.941 50.46ZM165.476 55.305C165.586 55.305 165.681 55.35 165.761 55.44C165.841 55.53 165.881 55.645 165.881 55.785C165.881 56.035 165.706 56.265 165.356 56.475C164.996 56.685 164.616 56.845 164.216 56.955C163.816 57.055 163.426 57.105 163.046 57.105C161.916 57.105 161.021 56.77 160.361 56.1C159.711 55.43 159.386 54.505 159.386 53.325C159.386 52.575 159.531 51.915 159.821 51.345C160.111 50.765 160.516 50.315 161.036 49.995C161.566 49.675 162.166 49.515 162.836 49.515C163.786 49.515 164.541 49.825 165.101 50.445C165.661 51.065 165.941 51.905 165.941 52.965C165.941 53.165 165.901 53.31 165.821 53.4C165.741 53.49 165.611 53.535 165.431 53.535H160.601C160.691 55.255 161.506 56.115 163.046 56.115C163.436 56.115 163.771 56.065 164.051 55.965C164.331 55.855 164.631 55.71 164.951 55.53C165.211 55.38 165.386 55.305 165.476 55.305ZM162.851 50.46C162.211 50.46 161.696 50.66 161.306 51.06C160.926 51.46 160.701 52.025 160.631 52.755H164.876C164.856 52.015 164.671 51.45 164.321 51.06C163.971 50.66 163.481 50.46 162.851 50.46ZM171.406 49.515C173.156 49.515 174.031 50.48 174.031 52.41V56.475C174.031 56.665 173.976 56.815 173.866 56.925C173.766 57.025 173.621 57.075 173.431 57.075C173.241 57.075 173.091 57.025 172.981 56.925C172.871 56.815 172.816 56.665 172.816 56.475V52.485C172.816 51.805 172.681 51.31 172.411 51C172.151 50.69 171.731 50.535 171.151 50.535C170.481 50.535 169.946 50.74 169.546 51.15C169.146 51.56 168.946 52.115 168.946 52.815V56.475C168.946 56.665 168.891 56.815 168.781 56.925C168.681 57.025 168.536 57.075 168.346 57.075C168.156 57.075 168.006 57.025 167.896 56.925C167.786 56.815 167.731 56.665 167.731 56.475V50.145C167.731 49.965 167.786 49.82 167.896 49.71C168.006 49.6 168.156 49.545 168.346 49.545C168.526 49.545 168.666 49.6 168.766 49.71C168.876 49.82 168.931 49.96 168.931 50.13V50.895C169.171 50.445 169.506 50.105 169.936 49.875C170.366 49.635 170.856 49.515 171.406 49.515ZM183.499 56.115C183.849 56.145 184.024 56.305 184.024 56.595C184.024 56.765 183.959 56.895 183.829 56.985C183.709 57.065 183.524 57.095 183.274 57.075L182.869 57.045C182.069 56.985 181.479 56.745 181.099 56.325C180.719 55.905 180.529 55.27 180.529 54.42V50.655H179.524C179.354 50.655 179.219 50.615 179.119 50.535C179.029 50.445 178.984 50.33 178.984 50.19C178.984 50.04 179.029 49.92 179.119 49.83C179.219 49.74 179.354 49.695 179.524 49.695H180.529V48C180.529 47.81 180.584 47.665 180.694 47.565C180.804 47.455 180.954 47.4 181.144 47.4C181.324 47.4 181.469 47.455 181.579 47.565C181.689 47.665 181.744 47.81 181.744 48V49.695H183.409C183.569 49.695 183.694 49.74 183.784 49.83C183.884 49.92 183.934 50.04 183.934 50.19C183.934 50.33 183.884 50.445 183.784 50.535C183.694 50.615 183.569 50.655 183.409 50.655H181.744V54.48C181.744 55.03 181.854 55.43 182.074 55.68C182.304 55.92 182.644 56.055 183.094 56.085L183.499 56.115ZM188.912 49.515C189.772 49.515 190.422 49.76 190.862 50.25C191.302 50.73 191.522 51.45 191.522 52.41V56.475C191.522 56.665 191.467 56.815 191.357 56.925C191.247 57.025 191.102 57.075 190.922 57.075C190.732 57.075 190.582 57.025 190.472 56.925C190.362 56.815 190.307 56.665 190.307 56.475V52.44C190.307 51.79 190.172 51.31 189.902 51C189.642 50.69 189.222 50.535 188.642 50.535C187.972 50.535 187.437 50.74 187.037 51.15C186.637 51.56 186.437 52.115 186.437 52.815V56.475C186.437 56.665 186.382 56.815 186.272 56.925C186.172 57.025 186.027 57.075 185.837 57.075C185.647 57.075 185.497 57.025 185.387 56.925C185.277 56.815 185.222 56.665 185.222 56.475V46.935C185.222 46.765 185.277 46.625 185.387 46.515C185.507 46.405 185.657 46.35 185.837 46.35C186.027 46.35 186.172 46.405 186.272 46.515C186.382 46.615 186.437 46.755 186.437 46.935V50.865C186.677 50.425 187.012 50.09 187.442 49.86C187.872 49.63 188.362 49.515 188.912 49.515ZM196.732 49.515C198.562 49.515 199.477 50.475 199.477 52.395V56.475C199.477 56.655 199.422 56.8 199.312 56.91C199.212 57.02 199.072 57.075 198.892 57.075C198.712 57.075 198.567 57.02 198.457 56.91C198.347 56.8 198.292 56.655 198.292 56.475V55.755C198.102 56.185 197.812 56.52 197.422 56.76C197.032 56.99 196.582 57.105 196.072 57.105C195.602 57.105 195.167 57.01 194.767 56.82C194.377 56.63 194.067 56.365 193.837 56.025C193.607 55.685 193.492 55.31 193.492 54.9C193.492 54.35 193.632 53.925 193.912 53.625C194.192 53.315 194.652 53.095 195.292 52.965C195.932 52.825 196.822 52.755 197.962 52.755H198.292V52.26C198.292 51.66 198.167 51.22 197.917 50.94C197.677 50.66 197.282 50.52 196.732 50.52C196.052 50.52 195.362 50.705 194.662 51.075C194.392 51.245 194.202 51.33 194.092 51.33C193.972 51.33 193.872 51.285 193.792 51.195C193.712 51.105 193.672 50.99 193.672 50.85C193.672 50.71 193.712 50.59 193.792 50.49C193.882 50.38 194.022 50.27 194.212 50.16C194.562 49.96 194.957 49.805 195.397 49.695C195.847 49.575 196.292 49.515 196.732 49.515ZM196.237 56.145C196.837 56.145 197.327 55.945 197.707 55.545C198.097 55.135 198.292 54.61 198.292 53.97V53.535H198.022C197.142 53.535 196.472 53.575 196.012 53.655C195.552 53.725 195.222 53.85 195.022 54.03C194.832 54.2 194.737 54.455 194.737 54.795C194.737 55.185 194.877 55.51 195.157 55.77C195.447 56.02 195.807 56.145 196.237 56.145ZM205.076 56.115C205.426 56.145 205.601 56.305 205.601 56.595C205.601 56.765 205.536 56.895 205.406 56.985C205.286 57.065 205.101 57.095 204.851 57.075L204.446 57.045C203.646 56.985 203.056 56.745 202.676 56.325C202.296 55.905 202.106 55.27 202.106 54.42V50.655H201.101C200.931 50.655 200.796 50.615 200.696 50.535C200.606 50.445 200.561 50.33 200.561 50.19C200.561 50.04 200.606 49.92 200.696 49.83C200.796 49.74 200.931 49.695 201.101 49.695H202.106V48C202.106 47.81 202.161 47.665 202.271 47.565C202.381 47.455 202.531 47.4 202.721 47.4C202.901 47.4 203.046 47.455 203.156 47.565C203.266 47.665 203.321 47.81 203.321 48V49.695H204.986C205.146 49.695 205.271 49.74 205.361 49.83C205.461 49.92 205.511 50.04 205.511 50.19C205.511 50.33 205.461 50.445 205.361 50.535C205.271 50.615 205.146 50.655 204.986 50.655H203.321V54.48C203.321 55.03 203.431 55.43 203.651 55.68C203.881 55.92 204.221 56.055 204.671 56.085L205.076 56.115ZM215.931 49.92C216.041 49.68 216.216 49.56 216.456 49.56C216.606 49.56 216.741 49.61 216.861 49.71C216.981 49.81 217.041 49.935 217.041 50.085C217.041 50.175 217.021 50.255 216.981 50.325L212.766 59.415C212.716 59.525 212.641 59.61 212.541 59.67C212.451 59.73 212.356 59.76 212.256 59.76C212.106 59.76 211.971 59.71 211.851 59.61C211.741 59.52 211.686 59.4 211.686 59.25C211.686 59.17 211.706 59.09 211.746 59.01L212.796 56.745L209.826 50.325C209.786 50.255 209.766 50.18 209.766 50.1C209.766 49.95 209.831 49.82 209.961 49.71C210.101 49.6 210.251 49.545 210.411 49.545C210.511 49.545 210.606 49.575 210.696 49.635C210.796 49.695 210.871 49.78 210.921 49.89L213.426 55.515L215.931 49.92ZM221.313 57.105C220.623 57.105 220.013 56.95 219.483 56.64C218.963 56.33 218.558 55.89 218.268 55.32C217.988 54.74 217.848 54.07 217.848 53.31C217.848 52.55 217.988 51.885 218.268 51.315C218.558 50.735 218.963 50.29 219.483 49.98C220.013 49.67 220.623 49.515 221.313 49.515C222.003 49.515 222.613 49.67 223.143 49.98C223.673 50.29 224.078 50.735 224.358 51.315C224.648 51.885 224.793 52.55 224.793 53.31C224.793 54.07 224.648 54.74 224.358 55.32C224.078 55.89 223.673 56.33 223.143 56.64C222.613 56.95 222.003 57.105 221.313 57.105ZM221.313 56.1C222.033 56.1 222.583 55.865 222.963 55.395C223.353 54.915 223.548 54.22 223.548 53.31C223.548 52.42 223.353 51.735 222.963 51.255C222.573 50.765 222.023 50.52 221.313 50.52C220.603 50.52 220.053 50.765 219.663 51.255C219.273 51.735 219.078 52.42 219.078 53.31C219.078 54.21 219.268 54.9 219.648 55.38C220.038 55.86 220.593 56.1 221.313 56.1ZM232.154 49.545C232.344 49.545 232.489 49.6 232.589 49.71C232.699 49.82 232.754 49.965 232.754 50.145V56.49C232.754 56.66 232.699 56.8 232.589 56.91C232.489 57.02 232.344 57.075 232.154 57.075C231.974 57.075 231.829 57.025 231.719 56.925C231.619 56.815 231.569 56.675 231.569 56.505V55.755C231.339 56.195 231.014 56.53 230.594 56.76C230.184 56.99 229.719 57.105 229.199 57.105C228.329 57.105 227.674 56.865 227.234 56.385C226.794 55.895 226.574 55.175 226.574 54.225V50.145C226.574 49.965 226.629 49.82 226.739 49.71C226.849 49.6 226.999 49.545 227.189 49.545C227.379 49.545 227.524 49.6 227.624 49.71C227.734 49.82 227.789 49.965 227.789 50.145V54.195C227.789 54.845 227.919 55.325 228.179 55.635C228.439 55.935 228.849 56.085 229.409 56.085C230.049 56.085 230.564 55.88 230.954 55.47C231.344 55.05 231.539 54.5 231.539 53.82V50.145C231.539 49.965 231.594 49.82 231.704 49.71C231.814 49.6 231.964 49.545 232.154 49.545ZM241.864 49.515C243.694 49.515 244.609 50.475 244.609 52.395V56.475C244.609 56.655 244.554 56.8 244.444 56.91C244.344 57.02 244.204 57.075 244.024 57.075C243.844 57.075 243.699 57.02 243.589 56.91C243.479 56.8 243.424 56.655 243.424 56.475V55.755C243.234 56.185 242.944 56.52 242.554 56.76C242.164 56.99 241.714 57.105 241.204 57.105C240.734 57.105 240.299 57.01 239.899 56.82C239.509 56.63 239.199 56.365 238.969 56.025C238.739 55.685 238.624 55.31 238.624 54.9C238.624 54.35 238.764 53.925 239.044 53.625C239.324 53.315 239.784 53.095 240.424 52.965C241.064 52.825 241.954 52.755 243.094 52.755H243.424V52.26C243.424 51.66 243.299 51.22 243.049 50.94C242.809 50.66 242.414 50.52 241.864 50.52C241.184 50.52 240.494 50.705 239.794 51.075C239.524 51.245 239.334 51.33 239.224 51.33C239.104 51.33 239.004 51.285 238.924 51.195C238.844 51.105 238.804 50.99 238.804 50.85C238.804 50.71 238.844 50.59 238.924 50.49C239.014 50.38 239.154 50.27 239.344 50.16C239.694 49.96 240.089 49.805 240.529 49.695C240.979 49.575 241.424 49.515 241.864 49.515ZM241.369 56.145C241.969 56.145 242.459 55.945 242.839 55.545C243.229 55.135 243.424 54.61 243.424 53.97V53.535H243.154C242.274 53.535 241.604 53.575 241.144 53.655C240.684 53.725 240.354 53.85 240.154 54.03C239.964 54.2 239.869 54.455 239.869 54.795C239.869 55.185 240.009 55.51 240.289 55.77C240.579 56.02 240.939 56.145 241.369 56.145ZM250.448 49.545C250.868 49.515 251.078 49.685 251.078 50.055C251.078 50.215 251.033 50.345 250.943 50.445C250.853 50.535 250.698 50.59 250.478 50.61L250.028 50.655C249.358 50.715 248.858 50.955 248.528 51.375C248.208 51.785 248.048 52.27 248.048 52.83V56.475C248.048 56.675 247.993 56.825 247.883 56.925C247.773 57.025 247.628 57.075 247.448 57.075C247.268 57.075 247.118 57.025 246.998 56.925C246.888 56.815 246.833 56.665 246.833 56.475V50.145C246.833 49.955 246.893 49.81 247.013 49.71C247.133 49.6 247.278 49.545 247.448 49.545C247.608 49.545 247.743 49.6 247.853 49.71C247.963 49.81 248.018 49.95 248.018 50.13V50.97C248.228 50.53 248.523 50.195 248.903 49.965C249.293 49.735 249.738 49.6 250.238 49.56L250.448 49.545ZM257.63 55.305C257.74 55.305 257.835 55.35 257.915 55.44C257.995 55.53 258.035 55.645 258.035 55.785C258.035 56.035 257.86 56.265 257.51 56.475C257.15 56.685 256.77 56.845 256.37 56.955C255.97 57.055 255.58 57.105 255.2 57.105C254.07 57.105 253.175 56.77 252.515 56.1C251.865 55.43 251.54 54.505 251.54 53.325C251.54 52.575 251.685 51.915 251.975 51.345C252.265 50.765 252.67 50.315 253.19 49.995C253.72 49.675 254.32 49.515 254.99 49.515C255.94 49.515 256.695 49.825 257.255 50.445C257.815 51.065 258.095 51.905 258.095 52.965C258.095 53.165 258.055 53.31 257.975 53.4C257.895 53.49 257.765 53.535 257.585 53.535H252.755C252.845 55.255 253.66 56.115 255.2 56.115C255.59 56.115 255.925 56.065 256.205 55.965C256.485 55.855 256.785 55.71 257.105 55.53C257.365 55.38 257.54 55.305 257.63 55.305ZM255.005 50.46C254.365 50.46 253.85 50.66 253.46 51.06C253.08 51.46 252.855 52.025 252.785 52.755H257.03C257.01 52.015 256.825 51.45 256.475 51.06C256.125 50.66 255.635 50.46 255.005 50.46ZM266.737 49.515C268.567 49.515 269.482 50.475 269.482 52.395V56.475C269.482 56.655 269.427 56.8 269.317 56.91C269.217 57.02 269.077 57.075 268.897 57.075C268.717 57.075 268.572 57.02 268.462 56.91C268.352 56.8 268.297 56.655 268.297 56.475V55.755C268.107 56.185 267.817 56.52 267.427 56.76C267.037 56.99 266.587 57.105 266.077 57.105C265.607 57.105 265.172 57.01 264.772 56.82C264.382 56.63 264.072 56.365 263.842 56.025C263.612 55.685 263.497 55.31 263.497 54.9C263.497 54.35 263.637 53.925 263.917 53.625C264.197 53.315 264.657 53.095 265.297 52.965C265.937 52.825 266.827 52.755 267.967 52.755H268.297V52.26C268.297 51.66 268.172 51.22 267.922 50.94C267.682 50.66 267.287 50.52 266.737 50.52C266.057 50.52 265.367 50.705 264.667 51.075C264.397 51.245 264.207 51.33 264.097 51.33C263.977 51.33 263.877 51.285 263.797 51.195C263.717 51.105 263.677 50.99 263.677 50.85C263.677 50.71 263.717 50.59 263.797 50.49C263.887 50.38 264.027 50.27 264.217 50.16C264.567 49.96 264.962 49.805 265.402 49.695C265.852 49.575 266.297 49.515 266.737 49.515ZM266.242 56.145C266.842 56.145 267.332 55.945 267.712 55.545C268.102 55.135 268.297 54.61 268.297 53.97V53.535H268.027C267.147 53.535 266.477 53.575 266.017 53.655C265.557 53.725 265.227 53.85 265.027 54.03C264.837 54.2 264.742 54.455 264.742 54.795C264.742 55.185 264.882 55.51 265.162 55.77C265.452 56.02 265.812 56.145 266.242 56.145ZM276.971 49.92C277.081 49.68 277.256 49.56 277.496 49.56C277.646 49.56 277.781 49.61 277.901 49.71C278.021 49.81 278.081 49.935 278.081 50.085C278.081 50.175 278.061 50.255 278.021 50.325L275.096 56.625C275.036 56.755 274.946 56.86 274.826 56.94C274.706 57.01 274.576 57.045 274.436 57.045C274.306 57.045 274.181 57.01 274.061 56.94C273.941 56.86 273.846 56.755 273.776 56.625L270.866 50.325C270.826 50.255 270.806 50.18 270.806 50.1C270.806 49.95 270.871 49.82 271.001 49.71C271.141 49.6 271.291 49.545 271.451 49.545C271.551 49.545 271.646 49.575 271.736 49.635C271.836 49.695 271.911 49.78 271.961 49.89L274.466 55.515L276.971 49.92ZM282.264 49.515C284.094 49.515 285.009 50.475 285.009 52.395V56.475C285.009 56.655 284.954 56.8 284.844 56.91C284.744 57.02 284.604 57.075 284.424 57.075C284.244 57.075 284.099 57.02 283.989 56.91C283.879 56.8 283.824 56.655 283.824 56.475V55.755C283.634 56.185 283.344 56.52 282.954 56.76C282.564 56.99 282.114 57.105 281.604 57.105C281.134 57.105 280.699 57.01 280.299 56.82C279.909 56.63 279.599 56.365 279.369 56.025C279.139 55.685 279.024 55.31 279.024 54.9C279.024 54.35 279.164 53.925 279.444 53.625C279.724 53.315 280.184 53.095 280.824 52.965C281.464 52.825 282.354 52.755 283.494 52.755H283.824V52.26C283.824 51.66 283.699 51.22 283.449 50.94C283.209 50.66 282.814 50.52 282.264 50.52C281.584 50.52 280.894 50.705 280.194 51.075C279.924 51.245 279.734 51.33 279.624 51.33C279.504 51.33 279.404 51.285 279.324 51.195C279.244 51.105 279.204 50.99 279.204 50.85C279.204 50.71 279.244 50.59 279.324 50.49C279.414 50.38 279.554 50.27 279.744 50.16C280.094 49.96 280.489 49.805 280.929 49.695C281.379 49.575 281.824 49.515 282.264 49.515ZM281.769 56.145C282.369 56.145 282.859 55.945 283.239 55.545C283.629 55.135 283.824 54.61 283.824 53.97V53.535H283.554C282.674 53.535 282.004 53.575 281.544 53.655C281.084 53.725 280.754 53.85 280.554 54.03C280.364 54.2 280.269 54.455 280.269 54.795C280.269 55.185 280.409 55.51 280.689 55.77C280.979 56.02 281.339 56.145 281.769 56.145ZM287.848 57.075C287.668 57.075 287.518 57.025 287.398 56.925C287.288 56.815 287.233 56.665 287.233 56.475V50.145C287.233 49.955 287.288 49.81 287.398 49.71C287.518 49.6 287.668 49.545 287.848 49.545C288.028 49.545 288.173 49.6 288.283 49.71C288.393 49.81 288.448 49.955 288.448 50.145V56.475C288.448 56.675 288.393 56.825 288.283 56.925C288.173 57.025 288.028 57.075 287.848 57.075ZM287.848 47.97C287.608 47.97 287.413 47.9 287.263 47.76C287.113 47.62 287.038 47.435 287.038 47.205C287.038 46.985 287.113 46.805 287.263 46.665C287.413 46.525 287.608 46.455 287.848 46.455C288.088 46.455 288.283 46.525 288.433 46.665C288.583 46.805 288.658 46.985 288.658 47.205C288.658 47.435 288.583 47.62 288.433 47.76C288.283 47.9 288.088 47.97 287.848 47.97ZM291.335 57.075C291.155 57.075 291.005 57.025 290.885 56.925C290.775 56.815 290.72 56.665 290.72 56.475V46.95C290.72 46.76 290.775 46.615 290.885 46.515C291.005 46.405 291.155 46.35 291.335 46.35C291.505 46.35 291.645 46.405 291.755 46.515C291.875 46.615 291.935 46.76 291.935 46.95V56.475C291.935 56.665 291.875 56.815 291.755 56.925C291.645 57.025 291.505 57.075 291.335 57.075ZM297.191 49.515C299.021 49.515 299.936 50.475 299.936 52.395V56.475C299.936 56.655 299.881 56.8 299.771 56.91C299.671 57.02 299.531 57.075 299.351 57.075C299.171 57.075 299.026 57.02 298.916 56.91C298.806 56.8 298.751 56.655 298.751 56.475V55.755C298.561 56.185 298.271 56.52 297.881 56.76C297.491 56.99 297.041 57.105 296.531 57.105C296.061 57.105 295.626 57.01 295.226 56.82C294.836 56.63 294.526 56.365 294.296 56.025C294.066 55.685 293.951 55.31 293.951 54.9C293.951 54.35 294.091 53.925 294.371 53.625C294.651 53.315 295.111 53.095 295.751 52.965C296.391 52.825 297.281 52.755 298.421 52.755H298.751V52.26C298.751 51.66 298.626 51.22 298.376 50.94C298.136 50.66 297.741 50.52 297.191 50.52C296.511 50.52 295.821 50.705 295.121 51.075C294.851 51.245 294.661 51.33 294.551 51.33C294.431 51.33 294.331 51.285 294.251 51.195C294.171 51.105 294.131 50.99 294.131 50.85C294.131 50.71 294.171 50.59 294.251 50.49C294.341 50.38 294.481 50.27 294.671 50.16C295.021 49.96 295.416 49.805 295.856 49.695C296.306 49.575 296.751 49.515 297.191 49.515ZM296.696 56.145C297.296 56.145 297.786 55.945 298.166 55.545C298.556 55.135 298.751 54.61 298.751 53.97V53.535H298.481C297.601 53.535 296.931 53.575 296.471 53.655C296.011 53.725 295.681 53.85 295.481 54.03C295.291 54.2 295.196 54.455 295.196 54.795C295.196 55.185 295.336 55.51 295.616 55.77C295.906 56.02 296.266 56.145 296.696 56.145ZM305.835 49.515C306.475 49.515 307.04 49.67 307.53 49.98C308.02 50.29 308.4 50.73 308.67 51.3C308.94 51.87 309.075 52.53 309.075 53.28C309.075 54.04 308.94 54.71 308.67 55.29C308.4 55.86 308.02 56.305 307.53 56.625C307.04 56.945 306.475 57.105 305.835 57.105C305.265 57.105 304.765 56.98 304.335 56.73C303.915 56.48 303.595 56.125 303.375 55.665V56.475C303.375 56.655 303.32 56.8 303.21 56.91C303.11 57.02 302.965 57.075 302.775 57.075C302.585 57.075 302.435 57.02 302.325 56.91C302.215 56.8 302.16 56.655 302.16 56.475V46.935C302.16 46.765 302.215 46.625 302.325 46.515C302.435 46.405 302.585 46.35 302.775 46.35C302.965 46.35 303.11 46.405 303.21 46.515C303.32 46.615 303.375 46.755 303.375 46.935V50.955C303.595 50.495 303.915 50.14 304.335 49.89C304.765 49.64 305.265 49.515 305.835 49.515ZM305.595 56.1C306.305 56.1 306.855 55.855 307.245 55.365C307.635 54.865 307.83 54.17 307.83 53.28C307.83 52.41 307.635 51.735 307.245 51.255C306.855 50.775 306.305 50.535 305.595 50.535C304.885 50.535 304.335 50.775 303.945 51.255C303.565 51.735 303.375 52.42 303.375 53.31C303.375 54.2 303.565 54.89 303.945 55.38C304.335 55.86 304.885 56.1 305.595 56.1ZM311.506 57.075C311.326 57.075 311.176 57.025 311.056 56.925C310.946 56.815 310.891 56.665 310.891 56.475V46.95C310.891 46.76 310.946 46.615 311.056 46.515C311.176 46.405 311.326 46.35 311.506 46.35C311.676 46.35 311.816 46.405 311.926 46.515C312.046 46.615 312.106 46.76 312.106 46.95V56.475C312.106 56.665 312.046 56.815 311.926 56.925C311.816 57.025 311.676 57.075 311.506 57.075ZM314.977 57.075C314.737 57.075 314.537 57 314.377 56.85C314.217 56.69 314.137 56.485 314.137 56.235C314.137 55.985 314.217 55.78 314.377 55.62C314.537 55.46 314.737 55.38 314.977 55.38C315.207 55.38 315.397 55.46 315.547 55.62C315.707 55.78 315.787 55.985 315.787 56.235C315.787 56.485 315.707 56.69 315.547 56.85C315.397 57 315.207 57.075 314.977 57.075ZM318.412 57.075C318.172 57.075 317.972 57 317.812 56.85C317.652 56.69 317.572 56.485 317.572 56.235C317.572 55.985 317.652 55.78 317.812 55.62C317.972 55.46 318.172 55.38 318.412 55.38C318.642 55.38 318.832 55.46 318.982 55.62C319.142 55.78 319.222 55.985 319.222 56.235C319.222 56.485 319.142 56.69 318.982 56.85C318.832 57 318.642 57.075 318.412 57.075ZM321.847 57.075C321.607 57.075 321.407 57 321.247 56.85C321.087 56.69 321.007 56.485 321.007 56.235C321.007 55.985 321.087 55.78 321.247 55.62C321.407 55.46 321.607 55.38 321.847 55.38C322.077 55.38 322.267 55.46 322.417 55.62C322.577 55.78 322.657 55.985 322.657 56.235C322.657 56.485 322.577 56.69 322.417 56.85C322.267 57 322.077 57.075 321.847 57.075Z" fill="#234CAD"/>
<path d="M114.3 27.46C114.38 27.6333 114.42 27.8067 114.42 27.98C114.42 28.2867 114.293 28.5467 114.04 28.76C113.8 28.9733 113.52 29.08 113.2 29.08C112.987 29.08 112.787 29.0267 112.6 28.92C112.413 28.8 112.267 28.62 112.16 28.38L110.96 25.7H103.92L102.72 28.38C102.613 28.62 102.467 28.8 102.28 28.92C102.093 29.0267 101.887 29.08 101.66 29.08C101.353 29.08 101.073 28.9733 100.82 28.76C100.567 28.5467 100.44 28.2867 100.44 27.98C100.44 27.8067 100.48 27.6333 100.56 27.46L106.08 15.6C106.2 15.3333 106.38 15.1333 106.62 15C106.873 14.8533 107.14 14.78 107.42 14.78C107.7 14.78 107.96 14.8533 108.2 15C108.453 15.1333 108.64 15.3333 108.76 15.6L114.3 27.46ZM104.8 23.7H110.08L107.44 17.76L104.8 23.7ZM121.824 18.98C122.997 18.98 123.87 19.3133 124.444 19.98C125.017 20.6467 125.304 21.6533 125.304 23V27.92C125.304 28.2933 125.19 28.5867 124.964 28.8C124.75 29.0133 124.45 29.12 124.064 29.12C123.677 29.12 123.37 29.0133 123.144 28.8C122.917 28.5867 122.804 28.2933 122.804 27.92V23.14C122.804 22.38 122.657 21.8267 122.364 21.48C122.084 21.1333 121.637 20.96 121.024 20.96C120.304 20.96 119.724 21.1867 119.284 21.64C118.857 22.0933 118.644 22.7 118.644 23.46V27.92C118.644 28.2933 118.53 28.5867 118.304 28.8C118.077 29.0133 117.77 29.12 117.384 29.12C116.997 29.12 116.69 29.0133 116.464 28.8C116.25 28.5867 116.144 28.2933 116.144 27.92V20.18C116.144 19.8333 116.257 19.5533 116.484 19.34C116.71 19.1267 117.017 19.02 117.404 19.02C117.75 19.02 118.03 19.1267 118.244 19.34C118.47 19.54 118.584 19.8067 118.584 20.14V20.68C118.917 20.1333 119.364 19.7133 119.924 19.42C120.484 19.1267 121.117 18.98 121.824 18.98ZM136.003 14.8C136.376 14.8 136.683 14.9067 136.923 15.12C137.163 15.3333 137.283 15.6133 137.283 15.96V27.92C137.283 28.28 137.17 28.5667 136.943 28.78C136.716 28.9933 136.416 29.1 136.043 29.1C135.67 29.1 135.37 28.9933 135.143 28.78C134.916 28.5667 134.803 28.28 134.803 27.92V27.42C134.51 27.9667 134.083 28.3933 133.523 28.7C132.976 29.0067 132.35 29.16 131.643 29.16C130.803 29.16 130.05 28.9467 129.383 28.52C128.73 28.0933 128.216 27.4933 127.843 26.72C127.483 25.9333 127.303 25.0333 127.303 24.02C127.303 23.0067 127.483 22.12 127.843 21.36C128.216 20.6 128.73 20.0133 129.383 19.6C130.036 19.1867 130.79 18.98 131.643 18.98C132.35 18.98 132.976 19.1267 133.523 19.42C134.07 19.7133 134.49 20.1267 134.783 20.66V15.92C134.783 15.5867 134.89 15.32 135.103 15.12C135.33 14.9067 135.63 14.8 136.003 14.8ZM132.303 27.22C133.103 27.22 133.716 26.9467 134.143 26.4C134.583 25.8533 134.803 25.0733 134.803 24.06C134.803 23.0467 134.583 22.2733 134.143 21.74C133.716 21.1933 133.11 20.92 132.323 20.92C131.523 20.92 130.903 21.1867 130.463 21.72C130.023 22.2533 129.803 23.02 129.803 24.02C129.803 25.0333 130.023 25.82 130.463 26.38C130.903 26.94 131.516 27.22 132.303 27.22ZM145.315 19.02C145.661 18.9933 145.935 19.0667 146.135 19.24C146.335 19.4133 146.435 19.6733 146.435 20.02C146.435 20.38 146.348 20.6467 146.175 20.82C146.001 20.9933 145.688 21.1067 145.235 21.16L144.635 21.22C143.848 21.3 143.268 21.5667 142.895 22.02C142.535 22.4733 142.355 23.04 142.355 23.72V27.92C142.355 28.3067 142.235 28.6067 141.995 28.82C141.755 29.02 141.455 29.12 141.095 29.12C140.735 29.12 140.435 29.02 140.195 28.82C139.968 28.6067 139.855 28.3067 139.855 27.92V20.18C139.855 19.8067 139.968 19.52 140.195 19.32C140.435 19.12 140.728 19.02 141.075 19.02C141.421 19.02 141.701 19.12 141.915 19.32C142.128 19.5067 142.235 19.78 142.235 20.14V20.94C142.488 20.3533 142.861 19.9 143.355 19.58C143.861 19.26 144.421 19.08 145.035 19.04L145.315 19.02ZM155.056 26.32C155.282 26.32 155.462 26.4067 155.596 26.58C155.742 26.7533 155.816 26.9867 155.816 27.28C155.816 27.6933 155.569 28.04 155.076 28.32C154.622 28.5733 154.109 28.78 153.536 28.94C152.962 29.0867 152.416 29.16 151.896 29.16C150.322 29.16 149.076 28.7067 148.156 27.8C147.236 26.8933 146.776 25.6533 146.776 24.08C146.776 23.08 146.976 22.1933 147.376 21.42C147.776 20.6467 148.336 20.0467 149.056 19.62C149.789 19.1933 150.616 18.98 151.536 18.98C152.416 18.98 153.182 19.1733 153.836 19.56C154.489 19.9467 154.996 20.4933 155.356 21.2C155.716 21.9067 155.896 22.74 155.896 23.7C155.896 24.2733 155.642 24.56 155.136 24.56H149.236C149.316 25.48 149.576 26.16 150.016 26.6C150.456 27.0267 151.096 27.24 151.936 27.24C152.362 27.24 152.736 27.1867 153.056 27.08C153.389 26.9733 153.762 26.8267 154.176 26.64C154.576 26.4267 154.869 26.32 155.056 26.32ZM151.596 20.74C150.916 20.74 150.369 20.9533 149.956 21.38C149.556 21.8067 149.316 22.42 149.236 23.22H153.756C153.729 22.4067 153.529 21.7933 153.156 21.38C152.782 20.9533 152.262 20.74 151.596 20.74ZM171.004 19.76C171.098 19.52 171.231 19.34 171.404 19.22C171.591 19.1 171.791 19.04 172.004 19.04C172.311 19.04 172.584 19.1467 172.824 19.36C173.078 19.56 173.204 19.8133 173.204 20.12C173.204 20.2933 173.171 20.4467 173.104 20.58L169.804 28.32C169.698 28.5733 169.531 28.7667 169.304 28.9C169.091 29.0333 168.851 29.1 168.584 29.1C168.331 29.1 168.091 29.0333 167.864 28.9C167.651 28.7667 167.491 28.5733 167.384 28.32L165.004 22.6L162.704 28.32C162.598 28.5733 162.431 28.7667 162.204 28.9C161.991 29.0333 161.751 29.1 161.484 29.1C161.231 29.1 160.991 29.0333 160.764 28.9C160.538 28.7667 160.371 28.5733 160.264 28.32L156.984 20.58C156.918 20.4067 156.884 20.26 156.884 20.14C156.884 19.8333 157.018 19.5733 157.284 19.36C157.551 19.1333 157.844 19.02 158.164 19.02C158.391 19.02 158.598 19.08 158.784 19.2C158.971 19.32 159.111 19.5 159.204 19.74L161.564 25.84L163.984 19.8C164.091 19.5467 164.244 19.36 164.444 19.24C164.644 19.1067 164.864 19.04 165.104 19.04C165.344 19.04 165.564 19.1067 165.764 19.24C165.964 19.36 166.118 19.5467 166.224 19.8L168.664 25.86L171.004 19.76ZM180.303 29.12C179.276 29.16 178.763 28.8067 178.763 28.06C178.763 27.74 178.85 27.5 179.023 27.34C179.183 27.1667 179.443 27.0667 179.803 27.04L180.443 27C180.99 26.9733 181.403 26.8 181.683 26.48C181.963 26.16 182.103 25.6733 182.103 25.02V16.08C182.103 15.6933 182.216 15.3867 182.443 15.16C182.683 14.92 182.996 14.8 183.383 14.8C183.783 14.8 184.096 14.92 184.323 15.16C184.563 15.3867 184.683 15.6933 184.683 16.08V25.02C184.683 27.54 183.436 28.8933 180.943 29.08L180.303 29.12ZM191.971 29.16C190.971 29.16 190.091 28.9533 189.331 28.54C188.584 28.1267 188.004 27.5333 187.591 26.76C187.178 25.9867 186.971 25.0867 186.971 24.06C186.971 23.0333 187.178 22.14 187.591 21.38C188.004 20.6067 188.584 20.0133 189.331 19.6C190.091 19.1867 190.971 18.98 191.971 18.98C192.971 18.98 193.844 19.1867 194.591 19.6C195.351 20.0133 195.931 20.6067 196.331 21.38C196.744 22.14 196.951 23.0333 196.951 24.06C196.951 25.0867 196.744 25.9867 196.331 26.76C195.931 27.5333 195.351 28.1267 194.591 28.54C193.844 28.9533 192.971 29.16 191.971 29.16ZM191.951 27.22C192.764 27.22 193.384 26.9533 193.811 26.42C194.238 25.8867 194.451 25.1 194.451 24.06C194.451 23.0333 194.238 22.2533 193.811 21.72C193.384 21.1733 192.771 20.9 191.971 20.9C191.171 20.9 190.551 21.1733 190.111 21.72C189.684 22.2533 189.471 23.0333 189.471 24.06C189.471 25.1 189.684 25.8867 190.111 26.42C190.538 26.9533 191.151 27.22 191.951 27.22ZM204.735 18.98C207.028 18.98 208.175 20.32 208.175 23V27.92C208.175 28.2933 208.062 28.5867 207.835 28.8C207.622 29.0133 207.322 29.12 206.935 29.12C206.548 29.12 206.242 29.0133 206.015 28.8C205.788 28.5867 205.675 28.2933 205.675 27.92V23C205.675 22.2933 205.528 21.78 205.235 21.46C204.955 21.1267 204.508 20.96 203.895 20.96C203.175 20.96 202.595 21.1867 202.155 21.64C201.728 22.0933 201.515 22.7 201.515 23.46V27.92C201.515 28.2933 201.402 28.5867 201.175 28.8C200.948 29.0133 200.642 29.12 200.255 29.12C199.868 29.12 199.562 29.0133 199.335 28.8C199.122 28.5867 199.015 28.2933 199.015 27.92V15.96C199.015 15.6133 199.128 15.3333 199.355 15.12C199.595 14.9067 199.902 14.8 200.275 14.8C200.648 14.8 200.948 14.9 201.175 15.1C201.402 15.3 201.515 15.5733 201.515 15.92V20.58C201.848 20.06 202.288 19.6667 202.835 19.4C203.395 19.12 204.028 18.98 204.735 18.98ZM216.394 18.98C217.567 18.98 218.441 19.3133 219.014 19.98C219.587 20.6467 219.874 21.6533 219.874 23V27.92C219.874 28.2933 219.761 28.5867 219.534 28.8C219.321 29.0133 219.021 29.12 218.634 29.12C218.247 29.12 217.941 29.0133 217.714 28.8C217.487 28.5867 217.374 28.2933 217.374 27.92V23.14C217.374 22.38 217.227 21.8267 216.934 21.48C216.654 21.1333 216.207 20.96 215.594 20.96C214.874 20.96 214.294 21.1867 213.854 21.64C213.427 22.0933 213.214 22.7 213.214 23.46V27.92C213.214 28.2933 213.101 28.5867 212.874 28.8C212.647 29.0133 212.341 29.12 211.954 29.12C211.567 29.12 211.261 29.0133 211.034 28.8C210.821 28.5867 210.714 28.2933 210.714 27.92V20.18C210.714 19.8333 210.827 19.5533 211.054 19.34C211.281 19.1267 211.587 19.02 211.974 19.02C212.321 19.02 212.601 19.1267 212.814 19.34C213.041 19.54 213.154 19.8067 213.154 20.14V20.68C213.487 20.1333 213.934 19.7133 214.494 19.42C215.054 19.1267 215.687 18.98 216.394 18.98ZM225.953 29.16C224.5 29.16 223.327 28.8733 222.433 28.3C222.007 28.0467 221.793 27.6867 221.793 27.22C221.793 26.9533 221.867 26.74 222.013 26.58C222.16 26.4067 222.34 26.32 222.553 26.32C222.78 26.32 223.093 26.4267 223.493 26.64C223.92 26.84 224.307 26.9933 224.653 27.1C225.013 27.2067 225.467 27.26 226.013 27.26C226.573 27.26 227.007 27.1667 227.313 26.98C227.633 26.7933 227.793 26.5333 227.793 26.2C227.793 25.9733 227.727 25.7933 227.593 25.66C227.473 25.5267 227.247 25.4067 226.913 25.3C226.593 25.18 226.1 25.0467 225.433 24.9C224.247 24.66 223.393 24.32 222.873 23.88C222.367 23.44 222.113 22.8333 222.113 22.06C222.113 21.4733 222.287 20.9467 222.633 20.48C222.98 20 223.453 19.6333 224.053 19.38C224.667 19.1133 225.36 18.98 226.133 18.98C226.693 18.98 227.233 19.0533 227.753 19.2C228.273 19.3333 228.74 19.5333 229.153 19.8C229.58 20.0667 229.793 20.42 229.793 20.86C229.793 21.1267 229.72 21.3533 229.573 21.54C229.427 21.7133 229.247 21.8 229.033 21.8C228.887 21.8 228.74 21.7733 228.593 21.72C228.46 21.6533 228.287 21.56 228.073 21.44C227.687 21.24 227.353 21.0933 227.073 21C226.793 20.8933 226.447 20.84 226.033 20.84C225.54 20.84 225.147 20.94 224.853 21.14C224.573 21.34 224.433 21.6133 224.433 21.96C224.433 22.2933 224.58 22.5467 224.873 22.72C225.167 22.8933 225.733 23.0667 226.573 23.24C227.467 23.4267 228.167 23.64 228.673 23.88C229.18 24.12 229.54 24.42 229.753 24.78C229.98 25.14 230.093 25.6 230.093 26.16C230.093 27.0667 229.713 27.7933 228.953 28.34C228.207 28.8867 227.207 29.16 225.953 29.16ZM236.58 29.16C235.58 29.16 234.7 28.9533 233.94 28.54C233.194 28.1267 232.614 27.5333 232.2 26.76C231.787 25.9867 231.58 25.0867 231.58 24.06C231.58 23.0333 231.787 22.14 232.2 21.38C232.614 20.6067 233.194 20.0133 233.94 19.6C234.7 19.1867 235.58 18.98 236.58 18.98C237.58 18.98 238.454 19.1867 239.2 19.6C239.96 20.0133 240.54 20.6067 240.94 21.38C241.354 22.14 241.56 23.0333 241.56 24.06C241.56 25.0867 241.354 25.9867 240.94 26.76C240.54 27.5333 239.96 28.1267 239.2 28.54C238.454 28.9533 237.58 29.16 236.58 29.16ZM236.56 27.22C237.374 27.22 237.994 26.9533 238.42 26.42C238.847 25.8867 239.06 25.1 239.06 24.06C239.06 23.0333 238.847 22.2533 238.42 21.72C237.994 21.1733 237.38 20.9 236.58 20.9C235.78 20.9 235.16 21.1733 234.72 21.72C234.294 22.2533 234.08 23.0333 234.08 24.06C234.08 25.1 234.294 25.8867 234.72 26.42C235.147 26.9533 235.76 27.22 236.56 27.22ZM249.304 18.98C250.478 18.98 251.351 19.3133 251.924 19.98C252.498 20.6467 252.784 21.6533 252.784 23V27.92C252.784 28.2933 252.671 28.5867 252.444 28.8C252.231 29.0133 251.931 29.12 251.544 29.12C251.158 29.12 250.851 29.0133 250.624 28.8C250.398 28.5867 250.284 28.2933 250.284 27.92V23.14C250.284 22.38 250.138 21.8267 249.844 21.48C249.564 21.1333 249.118 20.96 248.504 20.96C247.784 20.96 247.204 21.1867 246.764 21.64C246.338 22.0933 246.124 22.7 246.124 23.46V27.92C246.124 28.2933 246.011 28.5867 245.784 28.8C245.558 29.0133 245.251 29.12 244.864 29.12C244.478 29.12 244.171 29.0133 243.944 28.8C243.731 28.5867 243.624 28.2933 243.624 27.92V20.18C243.624 19.8333 243.738 19.5533 243.964 19.34C244.191 19.1267 244.498 19.02 244.884 19.02C245.231 19.02 245.511 19.1267 245.724 19.34C245.951 19.54 246.064 19.8067 246.064 20.14V20.68C246.398 20.1333 246.844 19.7133 247.404 19.42C247.964 19.1267 248.598 18.98 249.304 18.98Z" fill="#234CAD"/>
</g>
</g>
<g clip-path="url(#clip2_3155_640)">
<circle cx="37.5" cy="37.5" r="37.5" fill="#F2F6FF"/>
<path d="M40.73 43.306C40.818 43.4967 40.862 43.6873 40.862 43.878C40.862 44.2153 40.7227 44.5013 40.444 44.736C40.18 44.9707 39.872 45.088 39.52 45.088C39.2853 45.088 39.0653 45.0293 38.86 44.912C38.6547 44.78 38.4933 44.582 38.376 44.318L37.056 41.37H29.312L27.992 44.318C27.8747 44.582 27.7133 44.78 27.508 44.912C27.3027 45.0293 27.0753 45.088 26.826 45.088C26.4887 45.088 26.1807 44.9707 25.902 44.736C25.6233 44.5013 25.484 44.2153 25.484 43.878C25.484 43.6873 25.528 43.4967 25.616 43.306L31.688 30.26C31.82 29.9667 32.018 29.7467 32.282 29.6C32.5607 29.4387 32.854 29.358 33.162 29.358C33.47 29.358 33.756 29.4387 34.02 29.6C34.2987 29.7467 34.504 29.9667 34.636 30.26L40.73 43.306ZM30.28 39.17H36.088L33.184 32.636L30.28 39.17ZM43.1438 45.132C42.0145 45.176 41.4498 44.7873 41.4498 43.966C41.4498 43.614 41.5451 43.35 41.7358 43.174C41.9118 42.9833 42.1978 42.8733 42.5938 42.844L43.2978 42.8C43.8991 42.7707 44.3538 42.58 44.6618 42.228C44.9698 41.876 45.1238 41.3407 45.1238 40.622V30.788C45.1238 30.3627 45.2485 30.0253 45.4978 29.776C45.7618 29.512 46.1065 29.38 46.5318 29.38C46.9718 29.38 47.3165 29.512 47.5658 29.776C47.8298 30.0253 47.9618 30.3627 47.9618 30.788V40.622C47.9618 43.394 46.5905 44.8827 43.8478 45.088L43.1438 45.132Z" fill="#234CAD"/>
</g>
<g clip-path="url(#clip3_3155_640)">
<circle cx="65" cy="10" r="8.75" fill="#234CAD" stroke="white" stroke-width="2.5"/>
<path d="M66.486 11.272C66.766 11.272 66.906 11.391 66.906 11.629C66.906 11.8763 66.766 12 66.486 12H63.826C63.7047 12 63.609 11.965 63.539 11.895C63.469 11.8203 63.434 11.7293 63.434 11.622C63.434 11.482 63.4877 11.356 63.595 11.244L65.191 9.529C65.387 9.31433 65.5293 9.11833 65.618 8.941C65.7113 8.759 65.758 8.57933 65.758 8.402C65.758 8.18267 65.695 8.01467 65.569 7.898C65.443 7.78133 65.2633 7.723 65.03 7.723C64.8387 7.723 64.652 7.76033 64.47 7.835C64.2927 7.905 64.113 8.003 63.931 8.129C63.8843 8.16167 63.8377 8.18967 63.791 8.213C63.7443 8.23167 63.6977 8.241 63.651 8.241C63.5717 8.241 63.5017 8.20367 63.441 8.129C63.385 8.05433 63.357 7.96567 63.357 7.863C63.357 7.793 63.3687 7.73233 63.392 7.681C63.42 7.62967 63.462 7.58067 63.518 7.534C63.7233 7.37067 63.9637 7.24233 64.239 7.149C64.5143 7.051 64.7897 7.002 65.065 7.002C65.5457 7.002 65.9283 7.12333 66.213 7.366C66.5023 7.60867 66.647 7.93533 66.647 8.346C66.647 8.63067 66.5863 8.899 66.465 9.151C66.3437 9.39833 66.1383 9.676 65.849 9.984L64.638 11.272H66.486Z" fill="#F7FAFC"/>
</g>
<defs>
<clipPath id="clip0_3155_640">
<rect width="288" height="57" fill="white" transform="translate(100 9)"/>
</clipPath>
<clipPath id="clip1_3155_640">
<rect width="224" height="57" fill="white" transform="translate(100 9)"/>
</clipPath>
<clipPath id="clip2_3155_640">
<rect width="75" height="75" fill="white"/>
</clipPath>
<clipPath id="clip3_3155_640">
<rect width="20" height="20" fill="white" transform="translate(55)"/>
</clipPath>
</defs>
</svg>
