<svg width="231" height="45" viewBox="0 0 231 45" fill="none" xmlns="http://www.w3.org/2000/svg">
<g clip-path="url(#clip0_3155_610)">
<path opacity="0.75" d="M207.556 12.517C207.64 12.517 207.705 12.538 207.752 12.58C207.799 12.622 207.822 12.6803 207.822 12.755C207.822 12.9183 207.733 13 207.556 13H204.812C204.733 13 204.667 12.9767 204.616 12.93C204.565 12.8787 204.539 12.818 204.539 12.748C204.539 12.6593 204.572 12.5823 204.637 12.517L206.324 10.662C206.557 10.4007 206.725 10.1673 206.828 9.962C206.935 9.752 206.989 9.542 206.989 9.332C206.989 9.06133 206.91 8.85367 206.751 8.709C206.597 8.56433 206.378 8.492 206.093 8.492C205.869 8.492 205.654 8.534 205.449 8.618C205.244 8.69733 205.038 8.821 204.833 8.989C204.763 9.045 204.698 9.073 204.637 9.073C204.586 9.073 204.541 9.04967 204.504 9.003C204.467 8.95167 204.448 8.891 204.448 8.821C204.448 8.723 204.485 8.64367 204.56 8.583C204.751 8.40567 204.985 8.26567 205.26 8.163C205.535 8.06033 205.818 8.009 206.107 8.009C206.55 8.009 206.903 8.12567 207.164 8.359C207.43 8.59233 207.563 8.90733 207.563 9.304C207.563 9.58867 207.498 9.86167 207.367 10.123C207.241 10.3843 207.031 10.676 206.737 10.998L205.337 12.517H207.556ZM209.002 10.305C208.89 10.305 208.797 10.27 208.722 10.2C208.648 10.1253 208.61 10.0297 208.61 9.913C208.61 9.79633 208.648 9.703 208.722 9.633C208.797 9.55833 208.89 9.521 209.002 9.521C209.11 9.521 209.198 9.55833 209.268 9.633C209.343 9.703 209.38 9.79633 209.38 9.913C209.38 10.0297 209.343 10.1253 209.268 10.2C209.198 10.27 209.11 10.305 209.002 10.305ZM209.002 13.035C208.89 13.035 208.797 13 208.722 12.93C208.648 12.8553 208.61 12.7597 208.61 12.643C208.61 12.5263 208.648 12.4307 208.722 12.356C208.797 12.2813 208.89 12.244 209.002 12.244C209.11 12.244 209.198 12.2813 209.268 12.356C209.343 12.4307 209.38 12.5263 209.38 12.643C209.38 12.7597 209.343 12.8553 209.268 12.93C209.198 13 209.11 13.035 209.002 13.035ZM211.897 13.056C211.332 13.056 210.903 12.8413 210.609 12.412C210.315 11.9827 210.168 11.3573 210.168 10.536C210.168 9.71 210.315 9.08233 210.609 8.653C210.903 8.22367 211.332 8.009 211.897 8.009C212.462 8.009 212.891 8.22367 213.185 8.653C213.479 9.07767 213.626 9.703 213.626 10.529C213.626 11.355 213.479 11.9827 213.185 12.412C212.891 12.8413 212.462 13.056 211.897 13.056ZM211.897 12.573C212.289 12.573 212.578 12.4073 212.765 12.076C212.952 11.7447 213.045 11.229 213.045 10.529C213.045 9.82433 212.952 9.30867 212.765 8.982C212.583 8.65533 212.294 8.492 211.897 8.492C211.505 8.492 211.216 8.65767 211.029 8.989C210.842 9.31567 210.749 9.829 210.749 10.529C210.749 11.229 210.842 11.7447 211.029 12.076C211.216 12.4073 211.505 12.573 211.897 12.573ZM216.948 10.466C217.237 10.5547 217.461 10.7063 217.62 10.921C217.783 11.1357 217.865 11.3923 217.865 11.691C217.865 12.1157 217.711 12.4493 217.403 12.692C217.095 12.93 216.659 13.049 216.094 13.049C215.529 13.049 215.093 12.93 214.785 12.692C214.477 12.4493 214.323 12.1157 214.323 11.691C214.323 11.3877 214.405 11.1287 214.568 10.914C214.731 10.6993 214.958 10.55 215.247 10.466C215 10.3727 214.804 10.2257 214.659 10.025C214.514 9.82433 214.442 9.58867 214.442 9.318C214.442 8.91667 214.587 8.59933 214.876 8.366C215.17 8.128 215.576 8.009 216.094 8.009C216.612 8.009 217.016 8.128 217.305 8.366C217.599 8.59933 217.746 8.91667 217.746 9.318C217.746 9.58867 217.674 9.82667 217.529 10.032C217.384 10.2327 217.191 10.3773 216.948 10.466ZM215.009 9.36C215.009 9.64933 215.1 9.871 215.282 10.025C215.469 10.179 215.739 10.256 216.094 10.256C216.449 10.256 216.717 10.179 216.899 10.025C217.086 9.871 217.179 9.64933 217.179 9.36C217.179 9.08467 217.086 8.87 216.899 8.716C216.717 8.562 216.449 8.485 216.094 8.485C215.739 8.485 215.469 8.562 215.282 8.716C215.1 8.87 215.009 9.08467 215.009 9.36ZM216.094 12.573C216.897 12.573 217.298 12.2673 217.298 11.656C217.298 11.0447 216.897 10.739 216.094 10.739C215.291 10.739 214.89 11.0447 214.89 11.656C214.89 12.2673 215.291 12.573 216.094 12.573ZM224.854 12.671C224.873 12.7083 224.882 12.748 224.882 12.79C224.882 12.86 224.854 12.9183 224.798 12.965C224.747 13.0117 224.684 13.035 224.609 13.035C224.492 13.035 224.411 12.979 224.364 12.867L223.867 11.733H221.228L220.724 12.867C220.677 12.979 220.596 13.035 220.479 13.035C220.404 13.035 220.339 13.0117 220.283 12.965C220.227 12.9137 220.199 12.853 220.199 12.783C220.199 12.7457 220.208 12.7083 220.227 12.671L222.229 8.219C222.257 8.15367 222.299 8.10467 222.355 8.072C222.411 8.03933 222.472 8.023 222.537 8.023C222.607 8.023 222.67 8.04167 222.726 8.079C222.782 8.11167 222.824 8.15833 222.852 8.219L224.854 12.671ZM221.438 11.257H223.657L222.544 8.744L221.438 11.257ZM230.073 8.03C230.162 8.03 230.229 8.058 230.276 8.114C230.327 8.16533 230.353 8.23533 230.353 8.324V12.755C230.353 12.839 230.33 12.9067 230.283 12.958C230.236 13.0093 230.171 13.035 230.087 13.035C230.003 13.035 229.94 13.0093 229.898 12.958C229.856 12.9067 229.835 12.839 229.835 12.755V9.178L228.316 12.09C228.251 12.2253 228.155 12.293 228.029 12.293C227.908 12.293 227.812 12.2253 227.742 12.09L226.216 9.213V12.755C226.216 12.839 226.193 12.9067 226.146 12.958C226.104 13.0093 226.041 13.035 225.957 13.035C225.873 13.035 225.808 13.0093 225.761 12.958C225.714 12.9067 225.691 12.839 225.691 12.755V8.324C225.691 8.23533 225.717 8.16533 225.768 8.114C225.819 8.058 225.889 8.03 225.978 8.03C226.095 8.03 226.188 8.09767 226.258 8.233L228.036 11.642L229.793 8.233C229.83 8.15833 229.87 8.107 229.912 8.079C229.959 8.04633 230.012 8.03 230.073 8.03Z" fill="#234CAD"/>
<g clip-path="url(#clip1_3155_610)">
<path d="M62.691 35.045C62.577 35.045 62.484 35.012 62.412 34.946C62.346 34.874 62.313 34.781 62.313 34.667V29.285H60.378C60.27 29.285 60.186 29.258 60.126 29.204C60.066 29.15 60.036 29.072 60.036 28.97C60.036 28.868 60.066 28.79 60.126 28.736C60.186 28.682 60.27 28.655 60.378 28.655H64.995C65.103 28.655 65.187 28.682 65.247 28.736C65.307 28.79 65.337 28.868 65.337 28.97C65.337 29.072 65.307 29.15 65.247 29.204C65.187 29.258 65.103 29.285 64.995 29.285H63.06V34.667C63.06 34.781 63.027 34.874 62.961 34.946C62.895 35.012 62.805 35.045 62.691 35.045ZM68.7777 30.509C69.2937 30.509 69.6837 30.656 69.9477 30.95C70.2117 31.238 70.3437 31.67 70.3437 32.246V34.685C70.3437 34.799 70.3107 34.889 70.2447 34.955C70.1787 35.015 70.0917 35.045 69.9837 35.045C69.8697 35.045 69.7797 35.015 69.7137 34.955C69.6477 34.889 69.6147 34.799 69.6147 34.685V32.264C69.6147 31.874 69.5337 31.586 69.3717 31.4C69.2157 31.214 68.9637 31.121 68.6157 31.121C68.2137 31.121 67.8927 31.244 67.6527 31.49C67.4127 31.736 67.2927 32.069 67.2927 32.489V34.685C67.2927 34.799 67.2597 34.889 67.1937 34.955C67.1337 35.015 67.0467 35.045 66.9327 35.045C66.8187 35.045 66.7287 35.015 66.6627 34.955C66.5967 34.889 66.5637 34.799 66.5637 34.685V28.961C66.5637 28.859 66.5967 28.775 66.6627 28.709C66.7347 28.643 66.8247 28.61 66.9327 28.61C67.0467 28.61 67.1337 28.643 67.1937 28.709C67.2597 28.769 67.2927 28.853 67.2927 28.961V31.319C67.4367 31.055 67.6377 30.854 67.8957 30.716C68.1537 30.578 68.4477 30.509 68.7777 30.509ZM72.0479 35.045C71.9399 35.045 71.8499 35.015 71.7779 34.955C71.7119 34.889 71.6789 34.799 71.6789 34.685V30.887C71.6789 30.773 71.7119 30.686 71.7779 30.626C71.8499 30.56 71.9399 30.527 72.0479 30.527C72.1559 30.527 72.2429 30.56 72.3089 30.626C72.3749 30.686 72.4079 30.773 72.4079 30.887V34.685C72.4079 34.805 72.3749 34.895 72.3089 34.955C72.2429 35.015 72.1559 35.045 72.0479 35.045ZM72.0479 29.582C71.9039 29.582 71.7869 29.54 71.6969 29.456C71.6069 29.372 71.5619 29.261 71.5619 29.123C71.5619 28.991 71.6069 28.883 71.6969 28.799C71.7869 28.715 71.9039 28.673 72.0479 28.673C72.1919 28.673 72.3089 28.715 72.3989 28.799C72.4889 28.883 72.5339 28.991 72.5339 29.123C72.5339 29.261 72.4889 29.372 72.3989 29.456C72.3089 29.54 72.1919 29.582 72.0479 29.582ZM75.2467 35.063C74.9707 35.063 74.7067 35.03 74.4547 34.964C74.2087 34.898 73.9897 34.805 73.7977 34.685C73.6897 34.613 73.6117 34.547 73.5637 34.487C73.5217 34.421 73.5007 34.343 73.5007 34.253C73.5007 34.175 73.5217 34.112 73.5637 34.064C73.6117 34.01 73.6717 33.983 73.7437 33.983C73.8157 33.983 73.9207 34.028 74.0587 34.118C74.2387 34.226 74.4157 34.313 74.5897 34.379C74.7697 34.439 74.9917 34.469 75.2557 34.469C75.5797 34.469 75.8317 34.412 76.0117 34.298C76.1917 34.184 76.2817 34.019 76.2817 33.803C76.2817 33.671 76.2487 33.566 76.1827 33.488C76.1167 33.404 76.0027 33.332 75.8407 33.272C75.6787 33.206 75.4417 33.14 75.1297 33.074C74.6017 32.96 74.2237 32.807 73.9957 32.615C73.7677 32.423 73.6537 32.162 73.6537 31.832C73.6537 31.574 73.7257 31.346 73.8697 31.148C74.0137 30.95 74.2117 30.794 74.4637 30.68C74.7217 30.566 75.0127 30.509 75.3367 30.509C75.5707 30.509 75.7957 30.542 76.0117 30.608C76.2337 30.668 76.4287 30.755 76.5967 30.869C76.8007 31.013 76.9027 31.163 76.9027 31.319C76.9027 31.397 76.8787 31.463 76.8307 31.517C76.7827 31.571 76.7257 31.598 76.6597 31.598C76.5877 31.598 76.4797 31.547 76.3357 31.445C76.1677 31.337 76.0087 31.253 75.8587 31.193C75.7087 31.133 75.5227 31.103 75.3007 31.103C75.0187 31.103 74.7907 31.166 74.6167 31.292C74.4487 31.418 74.3647 31.586 74.3647 31.796C74.3647 31.928 74.3947 32.036 74.4547 32.12C74.5207 32.198 74.6257 32.27 74.7697 32.336C74.9197 32.396 75.1327 32.456 75.4087 32.516C75.8167 32.606 76.1317 32.705 76.3537 32.813C76.5817 32.921 76.7437 33.053 76.8397 33.209C76.9357 33.365 76.9837 33.563 76.9837 33.803C76.9837 34.181 76.8247 34.487 76.5067 34.721C76.1887 34.949 75.7687 35.063 75.2467 35.063ZM86.4092 30.761C86.4692 30.617 86.5682 30.545 86.7062 30.545C86.7962 30.545 86.8772 30.575 86.9492 30.635C87.0212 30.695 87.0572 30.77 87.0572 30.86C87.0572 30.902 87.0482 30.947 87.0302 30.995L85.5362 34.775C85.5002 34.853 85.4462 34.916 85.3742 34.964C85.3082 35.006 85.2332 35.027 85.1492 35.027C85.0712 35.027 84.9962 35.006 84.9242 34.964C84.8582 34.916 84.8072 34.853 84.7712 34.775L83.5292 31.616L82.2962 34.775C82.2662 34.853 82.2152 34.916 82.1432 34.964C82.0712 35.006 81.9932 35.027 81.9092 35.027C81.8312 35.027 81.7562 35.006 81.6842 34.964C81.6122 34.916 81.5582 34.853 81.5222 34.775L80.0282 31.004C80.0102 30.956 80.0012 30.914 80.0012 30.878C80.0012 30.782 80.0402 30.701 80.1182 30.635C80.2022 30.569 80.2922 30.536 80.3882 30.536C80.5322 30.536 80.6342 30.608 80.6942 30.752L81.9272 34.073L83.1962 30.779C83.2322 30.701 83.2802 30.641 83.3402 30.599C83.4062 30.557 83.4752 30.536 83.5472 30.536C83.6252 30.536 83.6942 30.557 83.7542 30.599C83.8202 30.641 83.8682 30.701 83.8982 30.779L85.1672 34.064L86.4092 30.761ZM89.7033 30.509C90.8013 30.509 91.3503 31.085 91.3503 32.237V34.685C91.3503 34.793 91.3173 34.88 91.2513 34.946C91.1913 35.012 91.1073 35.045 90.9993 35.045C90.8913 35.045 90.8043 35.012 90.7383 34.946C90.6723 34.88 90.6393 34.793 90.6393 34.685V34.253C90.5253 34.511 90.3513 34.712 90.1173 34.856C89.8833 34.994 89.6133 35.063 89.3073 35.063C89.0253 35.063 88.7643 35.006 88.5243 34.892C88.2903 34.778 88.1043 34.619 87.9663 34.415C87.8283 34.211 87.7593 33.986 87.7593 33.74C87.7593 33.41 87.8433 33.155 88.0113 32.975C88.1793 32.789 88.4553 32.657 88.8393 32.579C89.2233 32.495 89.7573 32.453 90.4413 32.453H90.6393V32.156C90.6393 31.796 90.5643 31.532 90.4143 31.364C90.2703 31.196 90.0333 31.112 89.7033 31.112C89.2953 31.112 88.8813 31.223 88.4613 31.445C88.2993 31.547 88.1853 31.598 88.1193 31.598C88.0473 31.598 87.9873 31.571 87.9393 31.517C87.8913 31.463 87.8673 31.394 87.8673 31.31C87.8673 31.226 87.8913 31.154 87.9393 31.094C87.9933 31.028 88.0773 30.962 88.1913 30.896C88.4013 30.776 88.6383 30.683 88.9023 30.617C89.1723 30.545 89.4393 30.509 89.7033 30.509ZM89.4063 34.487C89.7663 34.487 90.0603 34.367 90.2883 34.127C90.5223 33.881 90.6393 33.566 90.6393 33.182V32.921H90.4773C89.9493 32.921 89.5473 32.945 89.2713 32.993C88.9953 33.035 88.7973 33.11 88.6773 33.218C88.5633 33.32 88.5063 33.473 88.5063 33.677C88.5063 33.911 88.5903 34.106 88.7583 34.262C88.9323 34.412 89.1483 34.487 89.4063 34.487ZM94.1608 35.063C93.8848 35.063 93.6208 35.03 93.3688 34.964C93.1228 34.898 92.9038 34.805 92.7118 34.685C92.6038 34.613 92.5258 34.547 92.4778 34.487C92.4358 34.421 92.4148 34.343 92.4148 34.253C92.4148 34.175 92.4358 34.112 92.4778 34.064C92.5258 34.01 92.5858 33.983 92.6578 33.983C92.7298 33.983 92.8348 34.028 92.9728 34.118C93.1528 34.226 93.3298 34.313 93.5038 34.379C93.6838 34.439 93.9058 34.469 94.1698 34.469C94.4938 34.469 94.7458 34.412 94.9258 34.298C95.1058 34.184 95.1958 34.019 95.1958 33.803C95.1958 33.671 95.1628 33.566 95.0968 33.488C95.0308 33.404 94.9168 33.332 94.7548 33.272C94.5928 33.206 94.3558 33.14 94.0438 33.074C93.5158 32.96 93.1378 32.807 92.9098 32.615C92.6818 32.423 92.5678 32.162 92.5678 31.832C92.5678 31.574 92.6398 31.346 92.7838 31.148C92.9278 30.95 93.1258 30.794 93.3778 30.68C93.6358 30.566 93.9268 30.509 94.2508 30.509C94.4848 30.509 94.7098 30.542 94.9258 30.608C95.1478 30.668 95.3428 30.755 95.5108 30.869C95.7148 31.013 95.8168 31.163 95.8168 31.319C95.8168 31.397 95.7928 31.463 95.7448 31.517C95.6968 31.571 95.6398 31.598 95.5738 31.598C95.5018 31.598 95.3938 31.547 95.2498 31.445C95.0818 31.337 94.9228 31.253 94.7728 31.193C94.6228 31.133 94.4368 31.103 94.2148 31.103C93.9328 31.103 93.7048 31.166 93.5308 31.292C93.3628 31.418 93.2788 31.586 93.2788 31.796C93.2788 31.928 93.3088 32.036 93.3688 32.12C93.4348 32.198 93.5398 32.27 93.6838 32.336C93.8338 32.396 94.0468 32.456 94.3228 32.516C94.7308 32.606 95.0458 32.705 95.2678 32.813C95.4958 32.921 95.6578 33.053 95.7538 33.209C95.8498 33.365 95.8978 33.563 95.8978 33.803C95.8978 34.181 95.7388 34.487 95.4208 34.721C95.1028 34.949 94.6828 35.063 94.1608 35.063ZM100.805 35.063C100.529 35.063 100.265 35.03 100.013 34.964C99.7673 34.898 99.5483 34.805 99.3563 34.685C99.2483 34.613 99.1703 34.547 99.1223 34.487C99.0803 34.421 99.0593 34.343 99.0593 34.253C99.0593 34.175 99.0803 34.112 99.1223 34.064C99.1703 34.01 99.2303 33.983 99.3023 33.983C99.3743 33.983 99.4793 34.028 99.6173 34.118C99.7973 34.226 99.9743 34.313 100.148 34.379C100.328 34.439 100.55 34.469 100.814 34.469C101.138 34.469 101.39 34.412 101.57 34.298C101.75 34.184 101.84 34.019 101.84 33.803C101.84 33.671 101.807 33.566 101.741 33.488C101.675 33.404 101.561 33.332 101.399 33.272C101.237 33.206 101 33.14 100.688 33.074C100.16 32.96 99.7823 32.807 99.5543 32.615C99.3263 32.423 99.2123 32.162 99.2123 31.832C99.2123 31.574 99.2843 31.346 99.4283 31.148C99.5723 30.95 99.7703 30.794 100.022 30.68C100.28 30.566 100.571 30.509 100.895 30.509C101.129 30.509 101.354 30.542 101.57 30.608C101.792 30.668 101.987 30.755 102.155 30.869C102.359 31.013 102.461 31.163 102.461 31.319C102.461 31.397 102.437 31.463 102.389 31.517C102.341 31.571 102.284 31.598 102.218 31.598C102.146 31.598 102.038 31.547 101.894 31.445C101.726 31.337 101.567 31.253 101.417 31.193C101.267 31.133 101.081 31.103 100.859 31.103C100.577 31.103 100.349 31.166 100.175 31.292C100.007 31.418 99.9233 31.586 99.9233 31.796C99.9233 31.928 99.9533 32.036 100.013 32.12C100.079 32.198 100.184 32.27 100.328 32.336C100.478 32.396 100.691 32.456 100.967 32.516C101.375 32.606 101.69 32.705 101.912 32.813C102.14 32.921 102.302 33.053 102.398 33.209C102.494 33.365 102.542 33.563 102.542 33.803C102.542 34.181 102.383 34.487 102.065 34.721C101.747 34.949 101.327 35.063 100.805 35.063ZM106.984 30.527C107.098 30.527 107.185 30.56 107.245 30.626C107.311 30.692 107.344 30.779 107.344 30.887V34.694C107.344 34.796 107.311 34.88 107.245 34.946C107.185 35.012 107.098 35.045 106.984 35.045C106.876 35.045 106.789 35.015 106.723 34.955C106.663 34.889 106.633 34.805 106.633 34.703V34.253C106.495 34.517 106.3 34.718 106.048 34.856C105.802 34.994 105.523 35.063 105.211 35.063C104.689 35.063 104.296 34.919 104.032 34.631C103.768 34.337 103.636 33.905 103.636 33.335V30.887C103.636 30.779 103.669 30.692 103.735 30.626C103.801 30.56 103.891 30.527 104.005 30.527C104.119 30.527 104.206 30.56 104.266 30.626C104.332 30.692 104.365 30.779 104.365 30.887V33.317C104.365 33.707 104.443 33.995 104.599 34.181C104.755 34.361 105.001 34.451 105.337 34.451C105.721 34.451 106.03 34.328 106.264 34.082C106.498 33.83 106.615 33.5 106.615 33.092V30.887C106.615 30.779 106.648 30.692 106.714 30.626C106.78 30.56 106.87 30.527 106.984 30.527ZM110.507 35.063C110.099 35.063 109.736 34.97 109.418 34.784C109.106 34.598 108.863 34.334 108.689 33.992C108.521 33.65 108.437 33.254 108.437 32.804C108.437 32.354 108.524 31.955 108.698 31.607C108.878 31.259 109.127 30.989 109.445 30.797C109.763 30.605 110.129 30.509 110.543 30.509C110.771 30.509 110.996 30.542 111.218 30.608C111.446 30.668 111.644 30.758 111.812 30.878C111.92 30.95 111.995 31.022 112.037 31.094C112.085 31.16 112.109 31.235 112.109 31.319C112.109 31.403 112.085 31.472 112.037 31.526C111.995 31.58 111.938 31.607 111.866 31.607C111.824 31.607 111.779 31.595 111.731 31.571C111.683 31.547 111.641 31.523 111.605 31.499C111.575 31.475 111.554 31.46 111.542 31.454C111.386 31.352 111.236 31.271 111.092 31.211C110.954 31.151 110.783 31.121 110.579 31.121C110.141 31.121 109.799 31.271 109.553 31.571C109.313 31.865 109.193 32.276 109.193 32.804C109.193 33.332 109.313 33.74 109.553 34.028C109.799 34.316 110.141 34.46 110.579 34.46C110.783 34.46 110.957 34.43 111.101 34.37C111.251 34.31 111.401 34.229 111.551 34.127C111.617 34.085 111.68 34.049 111.74 34.019C111.8 33.989 111.851 33.974 111.893 33.974C111.959 33.974 112.013 34.001 112.055 34.055C112.103 34.109 112.127 34.178 112.127 34.262C112.127 34.34 112.106 34.412 112.064 34.478C112.022 34.538 111.944 34.607 111.83 34.685C111.662 34.799 111.458 34.892 111.218 34.964C110.984 35.03 110.747 35.063 110.507 35.063ZM115.219 30.509C115.735 30.509 116.125 30.656 116.389 30.95C116.653 31.238 116.785 31.67 116.785 32.246V34.685C116.785 34.799 116.752 34.889 116.686 34.955C116.62 35.015 116.533 35.045 116.425 35.045C116.311 35.045 116.221 35.015 116.155 34.955C116.089 34.889 116.056 34.799 116.056 34.685V32.264C116.056 31.874 115.975 31.586 115.813 31.4C115.657 31.214 115.405 31.121 115.057 31.121C114.655 31.121 114.334 31.244 114.094 31.49C113.854 31.736 113.734 32.069 113.734 32.489V34.685C113.734 34.799 113.701 34.889 113.635 34.955C113.575 35.015 113.488 35.045 113.374 35.045C113.26 35.045 113.17 35.015 113.104 34.955C113.038 34.889 113.005 34.799 113.005 34.685V28.961C113.005 28.859 113.038 28.775 113.104 28.709C113.176 28.643 113.266 28.61 113.374 28.61C113.488 28.61 113.575 28.643 113.635 28.709C113.701 28.769 113.734 28.853 113.734 28.961V31.319C113.878 31.055 114.079 30.854 114.337 30.716C114.595 30.578 114.889 30.509 115.219 30.509ZM122.232 30.509C123.33 30.509 123.879 31.085 123.879 32.237V34.685C123.879 34.793 123.846 34.88 123.78 34.946C123.72 35.012 123.636 35.045 123.528 35.045C123.42 35.045 123.333 35.012 123.267 34.946C123.201 34.88 123.168 34.793 123.168 34.685V34.253C123.054 34.511 122.88 34.712 122.646 34.856C122.412 34.994 122.142 35.063 121.836 35.063C121.554 35.063 121.293 35.006 121.053 34.892C120.819 34.778 120.633 34.619 120.495 34.415C120.357 34.211 120.288 33.986 120.288 33.74C120.288 33.41 120.372 33.155 120.54 32.975C120.708 32.789 120.984 32.657 121.368 32.579C121.752 32.495 122.286 32.453 122.97 32.453H123.168V32.156C123.168 31.796 123.093 31.532 122.943 31.364C122.799 31.196 122.562 31.112 122.232 31.112C121.824 31.112 121.41 31.223 120.99 31.445C120.828 31.547 120.714 31.598 120.648 31.598C120.576 31.598 120.516 31.571 120.468 31.517C120.42 31.463 120.396 31.394 120.396 31.31C120.396 31.226 120.42 31.154 120.468 31.094C120.522 31.028 120.606 30.962 120.72 30.896C120.93 30.776 121.167 30.683 121.431 30.617C121.701 30.545 121.968 30.509 122.232 30.509ZM121.935 34.487C122.295 34.487 122.589 34.367 122.817 34.127C123.051 33.881 123.168 33.566 123.168 33.182V32.921H123.006C122.478 32.921 122.076 32.945 121.8 32.993C121.524 33.035 121.326 33.11 121.206 33.218C121.092 33.32 121.035 33.473 121.035 33.677C121.035 33.911 121.119 34.106 121.287 34.262C121.461 34.412 121.677 34.487 121.935 34.487ZM129.738 30.509C130.122 30.509 130.461 30.602 130.755 30.788C131.049 30.974 131.277 31.238 131.439 31.58C131.601 31.922 131.682 32.318 131.682 32.768C131.682 33.224 131.601 33.626 131.439 33.974C131.277 34.316 131.049 34.583 130.755 34.775C130.461 34.967 130.122 35.063 129.738 35.063C129.396 35.063 129.096 34.988 128.838 34.838C128.586 34.688 128.394 34.475 128.262 34.199V34.685C128.262 34.793 128.229 34.88 128.163 34.946C128.103 35.012 128.016 35.045 127.902 35.045C127.788 35.045 127.698 35.012 127.632 34.946C127.566 34.88 127.533 34.793 127.533 34.685V28.961C127.533 28.859 127.566 28.775 127.632 28.709C127.698 28.643 127.788 28.61 127.902 28.61C128.016 28.61 128.103 28.643 128.163 28.709C128.229 28.769 128.262 28.853 128.262 28.961V31.373C128.394 31.097 128.586 30.884 128.838 30.734C129.096 30.584 129.396 30.509 129.738 30.509ZM129.594 34.46C130.02 34.46 130.35 34.313 130.584 34.019C130.818 33.719 130.935 33.302 130.935 32.768C130.935 32.246 130.818 31.841 130.584 31.553C130.35 31.265 130.02 31.121 129.594 31.121C129.168 31.121 128.838 31.265 128.604 31.553C128.376 31.841 128.262 32.252 128.262 32.786C128.262 33.32 128.376 33.734 128.604 34.028C128.838 34.316 129.168 34.46 129.594 34.46ZM136.102 30.527C136.216 30.527 136.303 30.56 136.363 30.626C136.429 30.692 136.462 30.779 136.462 30.887V34.694C136.462 34.796 136.429 34.88 136.363 34.946C136.303 35.012 136.216 35.045 136.102 35.045C135.994 35.045 135.907 35.015 135.841 34.955C135.781 34.889 135.751 34.805 135.751 34.703V34.253C135.613 34.517 135.418 34.718 135.166 34.856C134.92 34.994 134.641 35.063 134.329 35.063C133.807 35.063 133.414 34.919 133.15 34.631C132.886 34.337 132.754 33.905 132.754 33.335V30.887C132.754 30.779 132.787 30.692 132.853 30.626C132.919 30.56 133.009 30.527 133.123 30.527C133.237 30.527 133.324 30.56 133.384 30.626C133.45 30.692 133.483 30.779 133.483 30.887V33.317C133.483 33.707 133.561 33.995 133.717 34.181C133.873 34.361 134.119 34.451 134.455 34.451C134.839 34.451 135.148 34.328 135.382 34.082C135.616 33.83 135.733 33.5 135.733 33.092V30.887C135.733 30.779 135.766 30.692 135.832 30.626C135.898 30.56 135.988 30.527 136.102 30.527ZM139.293 35.063C139.017 35.063 138.753 35.03 138.501 34.964C138.255 34.898 138.036 34.805 137.844 34.685C137.736 34.613 137.658 34.547 137.61 34.487C137.568 34.421 137.547 34.343 137.547 34.253C137.547 34.175 137.568 34.112 137.61 34.064C137.658 34.01 137.718 33.983 137.79 33.983C137.862 33.983 137.967 34.028 138.105 34.118C138.285 34.226 138.462 34.313 138.636 34.379C138.816 34.439 139.038 34.469 139.302 34.469C139.626 34.469 139.878 34.412 140.058 34.298C140.238 34.184 140.328 34.019 140.328 33.803C140.328 33.671 140.295 33.566 140.229 33.488C140.163 33.404 140.049 33.332 139.887 33.272C139.725 33.206 139.488 33.14 139.176 33.074C138.648 32.96 138.27 32.807 138.042 32.615C137.814 32.423 137.7 32.162 137.7 31.832C137.7 31.574 137.772 31.346 137.916 31.148C138.06 30.95 138.258 30.794 138.51 30.68C138.768 30.566 139.059 30.509 139.383 30.509C139.617 30.509 139.842 30.542 140.058 30.608C140.28 30.668 140.475 30.755 140.643 30.869C140.847 31.013 140.949 31.163 140.949 31.319C140.949 31.397 140.925 31.463 140.877 31.517C140.829 31.571 140.772 31.598 140.706 31.598C140.634 31.598 140.526 31.547 140.382 31.445C140.214 31.337 140.055 31.253 139.905 31.193C139.755 31.133 139.569 31.103 139.347 31.103C139.065 31.103 138.837 31.166 138.663 31.292C138.495 31.418 138.411 31.586 138.411 31.796C138.411 31.928 138.441 32.036 138.501 32.12C138.567 32.198 138.672 32.27 138.816 32.336C138.966 32.396 139.179 32.456 139.455 32.516C139.863 32.606 140.178 32.705 140.4 32.813C140.628 32.921 140.79 33.053 140.886 33.209C140.982 33.365 141.03 33.563 141.03 33.803C141.03 34.181 140.871 34.487 140.553 34.721C140.235 34.949 139.815 35.063 139.293 35.063ZM145.221 30.752C145.287 30.608 145.392 30.536 145.536 30.536C145.626 30.536 145.707 30.566 145.779 30.626C145.851 30.686 145.887 30.761 145.887 30.851C145.887 30.905 145.875 30.953 145.851 30.995L143.322 36.449C143.292 36.515 143.247 36.566 143.187 36.602C143.133 36.638 143.076 36.656 143.016 36.656C142.926 36.656 142.845 36.626 142.773 36.566C142.707 36.512 142.674 36.44 142.674 36.35C142.674 36.302 142.686 36.254 142.71 36.206L143.34 34.847L141.558 30.995C141.534 30.953 141.522 30.908 141.522 30.86C141.522 30.77 141.561 30.692 141.639 30.626C141.723 30.56 141.813 30.527 141.909 30.527C141.969 30.527 142.026 30.545 142.08 30.581C142.14 30.617 142.185 30.668 142.215 30.734L143.718 34.109L145.221 30.752ZM154.999 30.761C155.059 30.617 155.158 30.545 155.296 30.545C155.386 30.545 155.467 30.575 155.539 30.635C155.611 30.695 155.647 30.77 155.647 30.86C155.647 30.902 155.638 30.947 155.62 30.995L154.126 34.775C154.09 34.853 154.036 34.916 153.964 34.964C153.898 35.006 153.823 35.027 153.739 35.027C153.661 35.027 153.586 35.006 153.514 34.964C153.448 34.916 153.397 34.853 153.361 34.775L152.119 31.616L150.886 34.775C150.856 34.853 150.805 34.916 150.733 34.964C150.661 35.006 150.583 35.027 150.499 35.027C150.421 35.027 150.346 35.006 150.274 34.964C150.202 34.916 150.148 34.853 150.112 34.775L148.618 31.004C148.6 30.956 148.591 30.914 148.591 30.878C148.591 30.782 148.63 30.701 148.708 30.635C148.792 30.569 148.882 30.536 148.978 30.536C149.122 30.536 149.224 30.608 149.284 30.752L150.517 34.073L151.786 30.779C151.822 30.701 151.87 30.641 151.93 30.599C151.996 30.557 152.065 30.536 152.137 30.536C152.215 30.536 152.284 30.557 152.344 30.599C152.41 30.641 152.458 30.701 152.488 30.779L153.757 34.064L154.999 30.761ZM159.922 33.983C159.988 33.983 160.045 34.01 160.093 34.064C160.141 34.118 160.165 34.187 160.165 34.271C160.165 34.421 160.06 34.559 159.85 34.685C159.634 34.811 159.406 34.907 159.166 34.973C158.926 35.033 158.692 35.063 158.464 35.063C157.786 35.063 157.249 34.862 156.853 34.46C156.463 34.058 156.268 33.503 156.268 32.795C156.268 32.345 156.355 31.949 156.529 31.607C156.703 31.259 156.946 30.989 157.258 30.797C157.576 30.605 157.936 30.509 158.338 30.509C158.908 30.509 159.361 30.695 159.697 31.067C160.033 31.439 160.201 31.943 160.201 32.579C160.201 32.699 160.177 32.786 160.129 32.84C160.081 32.894 160.003 32.921 159.895 32.921H156.997C157.051 33.953 157.54 34.469 158.464 34.469C158.698 34.469 158.899 34.439 159.067 34.379C159.235 34.313 159.415 34.226 159.607 34.118C159.763 34.028 159.868 33.983 159.922 33.983ZM158.347 31.076C157.963 31.076 157.654 31.196 157.42 31.436C157.192 31.676 157.057 32.015 157.015 32.453H159.562C159.55 32.009 159.439 31.67 159.229 31.436C159.019 31.196 158.725 31.076 158.347 31.076ZM164.668 33.983C164.734 33.983 164.791 34.01 164.839 34.064C164.887 34.118 164.911 34.187 164.911 34.271C164.911 34.421 164.806 34.559 164.596 34.685C164.38 34.811 164.152 34.907 163.912 34.973C163.672 35.033 163.438 35.063 163.21 35.063C162.532 35.063 161.995 34.862 161.599 34.46C161.209 34.058 161.014 33.503 161.014 32.795C161.014 32.345 161.101 31.949 161.275 31.607C161.449 31.259 161.692 30.989 162.004 30.797C162.322 30.605 162.682 30.509 163.084 30.509C163.654 30.509 164.107 30.695 164.443 31.067C164.779 31.439 164.947 31.943 164.947 32.579C164.947 32.699 164.923 32.786 164.875 32.84C164.827 32.894 164.749 32.921 164.641 32.921H161.743C161.797 33.953 162.286 34.469 163.21 34.469C163.444 34.469 163.645 34.439 163.813 34.379C163.981 34.313 164.161 34.226 164.353 34.118C164.509 34.028 164.614 33.983 164.668 33.983ZM163.093 31.076C162.709 31.076 162.4 31.196 162.166 31.436C161.938 31.676 161.803 32.015 161.761 32.453H164.308C164.296 32.009 164.185 31.67 163.975 31.436C163.765 31.196 163.471 31.076 163.093 31.076ZM169.522 34.424C169.618 34.514 169.666 34.61 169.666 34.712C169.666 34.802 169.633 34.88 169.567 34.946C169.507 35.012 169.432 35.045 169.342 35.045C169.264 35.045 169.183 35.009 169.099 34.937L166.75 32.912V34.685C166.75 34.799 166.714 34.889 166.642 34.955C166.576 35.015 166.492 35.045 166.39 35.045C166.282 35.045 166.192 35.015 166.12 34.955C166.054 34.889 166.021 34.799 166.021 34.685V28.97C166.021 28.856 166.054 28.769 166.12 28.709C166.192 28.643 166.282 28.61 166.39 28.61C166.492 28.61 166.576 28.643 166.642 28.709C166.714 28.769 166.75 28.856 166.75 28.97V32.624L168.901 30.653C168.973 30.581 169.054 30.545 169.144 30.545C169.234 30.545 169.312 30.578 169.378 30.644C169.444 30.71 169.477 30.788 169.477 30.878C169.477 30.98 169.435 31.07 169.351 31.148L167.578 32.732L169.522 34.424ZM170.977 35.045C170.833 35.045 170.713 35 170.617 34.91C170.521 34.814 170.473 34.691 170.473 34.541C170.473 34.391 170.521 34.268 170.617 34.172C170.713 34.076 170.833 34.028 170.977 34.028C171.115 34.028 171.229 34.076 171.319 34.172C171.415 34.268 171.463 34.391 171.463 34.541C171.463 34.691 171.415 34.814 171.319 34.91C171.229 35 171.115 35.045 170.977 35.045ZM175.471 35.045C175.357 35.045 175.267 35.012 175.201 34.946C175.135 34.874 175.102 34.781 175.102 34.667V28.988C175.102 28.874 175.135 28.784 175.201 28.718C175.267 28.646 175.357 28.61 175.471 28.61C175.585 28.61 175.675 28.646 175.741 28.718C175.807 28.784 175.84 28.874 175.84 28.988V34.667C175.84 34.781 175.807 34.874 175.741 34.946C175.675 35.012 175.585 35.045 175.471 35.045ZM181.426 35.063C181.018 35.063 180.655 34.97 180.337 34.784C180.025 34.598 179.782 34.334 179.608 33.992C179.44 33.65 179.356 33.254 179.356 32.804C179.356 32.354 179.443 31.955 179.617 31.607C179.797 31.259 180.046 30.989 180.364 30.797C180.682 30.605 181.048 30.509 181.462 30.509C181.69 30.509 181.915 30.542 182.137 30.608C182.365 30.668 182.563 30.758 182.731 30.878C182.839 30.95 182.914 31.022 182.956 31.094C183.004 31.16 183.028 31.235 183.028 31.319C183.028 31.403 183.004 31.472 182.956 31.526C182.914 31.58 182.857 31.607 182.785 31.607C182.743 31.607 182.698 31.595 182.65 31.571C182.602 31.547 182.56 31.523 182.524 31.499C182.494 31.475 182.473 31.46 182.461 31.454C182.305 31.352 182.155 31.271 182.011 31.211C181.873 31.151 181.702 31.121 181.498 31.121C181.06 31.121 180.718 31.271 180.472 31.571C180.232 31.865 180.112 32.276 180.112 32.804C180.112 33.332 180.232 33.74 180.472 34.028C180.718 34.316 181.06 34.46 181.498 34.46C181.702 34.46 181.876 34.43 182.02 34.37C182.17 34.31 182.32 34.229 182.47 34.127C182.536 34.085 182.599 34.049 182.659 34.019C182.719 33.989 182.77 33.974 182.812 33.974C182.878 33.974 182.932 34.001 182.974 34.055C183.022 34.109 183.046 34.178 183.046 34.262C183.046 34.34 183.025 34.412 182.983 34.478C182.941 34.538 182.863 34.607 182.749 34.685C182.581 34.799 182.377 34.892 182.137 34.964C181.903 35.03 181.666 35.063 181.426 35.063ZM185.715 30.509C186.813 30.509 187.362 31.085 187.362 32.237V34.685C187.362 34.793 187.329 34.88 187.263 34.946C187.203 35.012 187.119 35.045 187.011 35.045C186.903 35.045 186.816 35.012 186.75 34.946C186.684 34.88 186.651 34.793 186.651 34.685V34.253C186.537 34.511 186.363 34.712 186.129 34.856C185.895 34.994 185.625 35.063 185.319 35.063C185.037 35.063 184.776 35.006 184.536 34.892C184.302 34.778 184.116 34.619 183.978 34.415C183.84 34.211 183.771 33.986 183.771 33.74C183.771 33.41 183.855 33.155 184.023 32.975C184.191 32.789 184.467 32.657 184.851 32.579C185.235 32.495 185.769 32.453 186.453 32.453H186.651V32.156C186.651 31.796 186.576 31.532 186.426 31.364C186.282 31.196 186.045 31.112 185.715 31.112C185.307 31.112 184.893 31.223 184.473 31.445C184.311 31.547 184.197 31.598 184.131 31.598C184.059 31.598 183.999 31.571 183.951 31.517C183.903 31.463 183.879 31.394 183.879 31.31C183.879 31.226 183.903 31.154 183.951 31.094C184.005 31.028 184.089 30.962 184.203 30.896C184.413 30.776 184.65 30.683 184.914 30.617C185.184 30.545 185.451 30.509 185.715 30.509ZM185.418 34.487C185.778 34.487 186.072 34.367 186.3 34.127C186.534 33.881 186.651 33.566 186.651 33.182V32.921H186.489C185.961 32.921 185.559 32.945 185.283 32.993C185.007 33.035 184.809 33.11 184.689 33.218C184.575 33.32 184.518 33.473 184.518 33.677C184.518 33.911 184.602 34.106 184.77 34.262C184.944 34.412 185.16 34.487 185.418 34.487ZM190.901 30.509C191.951 30.509 192.476 31.088 192.476 32.246V34.685C192.476 34.799 192.443 34.889 192.377 34.955C192.317 35.015 192.23 35.045 192.116 35.045C192.002 35.045 191.912 35.015 191.846 34.955C191.78 34.889 191.747 34.799 191.747 34.685V32.291C191.747 31.883 191.666 31.586 191.504 31.4C191.348 31.214 191.096 31.121 190.748 31.121C190.346 31.121 190.025 31.244 189.785 31.49C189.545 31.736 189.425 32.069 189.425 32.489V34.685C189.425 34.799 189.392 34.889 189.326 34.955C189.266 35.015 189.179 35.045 189.065 35.045C188.951 35.045 188.861 35.015 188.795 34.955C188.729 34.889 188.696 34.799 188.696 34.685V30.887C188.696 30.779 188.729 30.692 188.795 30.626C188.861 30.56 188.951 30.527 189.065 30.527C189.173 30.527 189.257 30.56 189.317 30.626C189.383 30.692 189.416 30.776 189.416 30.878V31.337C189.56 31.067 189.761 30.863 190.019 30.725C190.277 30.581 190.571 30.509 190.901 30.509ZM194.172 35.045C194.028 35.045 193.908 35 193.812 34.91C193.716 34.814 193.668 34.691 193.668 34.541C193.668 34.391 193.716 34.268 193.812 34.172C193.908 34.076 194.028 34.028 194.172 34.028C194.31 34.028 194.424 34.076 194.514 34.172C194.61 34.268 194.658 34.391 194.658 34.541C194.658 34.691 194.61 34.814 194.514 34.91C194.424 35 194.31 35.045 194.172 35.045ZM196.233 35.045C196.089 35.045 195.969 35 195.873 34.91C195.777 34.814 195.729 34.691 195.729 34.541C195.729 34.391 195.777 34.268 195.873 34.172C195.969 34.076 196.089 34.028 196.233 34.028C196.371 34.028 196.485 34.076 196.575 34.172C196.671 34.268 196.719 34.391 196.719 34.541C196.719 34.691 196.671 34.814 196.575 34.91C196.485 35 196.371 35.045 196.233 35.045ZM198.294 35.045C198.15 35.045 198.03 35 197.934 34.91C197.838 34.814 197.79 34.691 197.79 34.541C197.79 34.391 197.838 34.268 197.934 34.172C198.03 34.076 198.15 34.028 198.294 34.028C198.432 34.028 198.546 34.076 198.636 34.172C198.732 34.268 198.78 34.391 198.78 34.541C198.78 34.691 198.732 34.814 198.636 34.91C198.546 35 198.432 35.045 198.294 35.045Z" fill="#234CAD"/>
<path d="M68.424 9.48C68.648 9.48 68.828 9.552 68.964 9.696C69.1 9.832 69.168 10.016 69.168 10.248V17.352C69.168 17.576 69.104 17.752 68.976 17.88C68.848 18.008 68.68 18.072 68.472 18.072C68.264 18.072 68.1 18.008 67.98 17.88C67.86 17.752 67.8 17.576 67.8 17.352V12.408L65.76 16.272C65.664 16.448 65.56 16.58 65.448 16.668C65.336 16.748 65.204 16.788 65.052 16.788C64.9 16.788 64.768 16.748 64.656 16.668C64.544 16.588 64.44 16.456 64.344 16.272L62.292 12.468V17.352C62.292 17.568 62.228 17.744 62.1 17.88C61.98 18.008 61.816 18.072 61.608 18.072C61.4 18.072 61.236 18.008 61.116 17.88C60.996 17.752 60.936 17.576 60.936 17.352V10.248C60.936 10.016 61 9.832 61.128 9.696C61.264 9.552 61.444 9.48 61.668 9.48C61.98 9.48 62.224 9.652 62.4 9.996L65.064 15.072L67.716 9.996C67.892 9.652 68.128 9.48 68.424 9.48ZM73.4138 11.988C74.2298 11.988 74.8338 12.192 75.2258 12.6C75.6258 13 75.8258 13.612 75.8258 14.436V17.364C75.8258 17.58 75.7618 17.752 75.6338 17.88C75.5058 18 75.3298 18.06 75.1058 18.06C74.8978 18.06 74.7258 17.996 74.5898 17.868C74.4618 17.74 74.3978 17.572 74.3978 17.364V17.1C74.2618 17.412 74.0458 17.656 73.7498 17.832C73.4618 18.008 73.1258 18.096 72.7418 18.096C72.3498 18.096 71.9938 18.016 71.6738 17.856C71.3538 17.696 71.1018 17.476 70.9178 17.196C70.7338 16.916 70.6418 16.604 70.6418 16.26C70.6418 15.828 70.7498 15.488 70.9658 15.24C71.1898 14.992 71.5498 14.812 72.0458 14.7C72.5418 14.588 73.2258 14.532 74.0978 14.532H74.3978V14.256C74.3978 13.864 74.3138 13.58 74.1458 13.404C73.9778 13.22 73.7058 13.128 73.3298 13.128C73.0978 13.128 72.8618 13.164 72.6218 13.236C72.3818 13.3 72.0978 13.396 71.7698 13.524C71.5618 13.628 71.4098 13.68 71.3138 13.68C71.1698 13.68 71.0498 13.628 70.9538 13.524C70.8658 13.42 70.8218 13.284 70.8218 13.116C70.8218 12.98 70.8538 12.864 70.9178 12.768C70.9898 12.664 71.1058 12.568 71.2658 12.48C71.5458 12.328 71.8778 12.208 72.2618 12.12C72.6538 12.032 73.0378 11.988 73.4138 11.988ZM73.0418 17.016C73.4418 17.016 73.7658 16.884 74.0138 16.62C74.2698 16.348 74.3978 16 74.3978 15.576V15.324H74.1818C73.6458 15.324 73.2298 15.348 72.9338 15.396C72.6378 15.444 72.4258 15.528 72.2978 15.648C72.1698 15.768 72.1058 15.932 72.1058 16.14C72.1058 16.396 72.1938 16.608 72.3698 16.776C72.5538 16.936 72.7778 17.016 73.0418 17.016ZM80.6263 12.012C80.8343 11.996 80.9983 12.04 81.1183 12.144C81.2383 12.248 81.2983 12.404 81.2983 12.612C81.2983 12.828 81.2463 12.988 81.1423 13.092C81.0383 13.196 80.8503 13.264 80.5783 13.296L80.2183 13.332C79.7463 13.38 79.3983 13.54 79.1743 13.812C78.9583 14.084 78.8503 14.424 78.8503 14.832V17.352C78.8503 17.584 78.7783 17.764 78.6343 17.892C78.4903 18.012 78.3103 18.072 78.0943 18.072C77.8783 18.072 77.6983 18.012 77.5543 17.892C77.4183 17.764 77.3503 17.584 77.3503 17.352V12.708C77.3503 12.484 77.4183 12.312 77.5543 12.192C77.6983 12.072 77.8743 12.012 78.0823 12.012C78.2903 12.012 78.4583 12.072 78.5863 12.192C78.7143 12.304 78.7783 12.468 78.7783 12.684V13.164C78.9303 12.812 79.1543 12.54 79.4503 12.348C79.7543 12.156 80.0903 12.048 80.4583 12.024L80.6263 12.012ZM87.1641 16.836C87.3241 16.988 87.4041 17.16 87.4041 17.352C87.4041 17.536 87.3361 17.7 87.2001 17.844C87.0721 17.988 86.9201 18.06 86.7441 18.06C86.5681 18.06 86.4041 17.988 86.2521 17.844L83.4441 15.3V17.352C83.4441 17.584 83.3721 17.76 83.2281 17.88C83.0841 18 82.9041 18.06 82.6881 18.06C82.4721 18.06 82.2921 18 82.1481 17.88C82.0121 17.76 81.9441 17.584 81.9441 17.352V10.188C81.9441 9.956 82.0121 9.78 82.1481 9.66C82.2921 9.54 82.4721 9.48 82.6881 9.48C82.9041 9.48 83.0841 9.54 83.2281 9.66C83.3721 9.78 83.4441 9.956 83.4441 10.188V14.7L86.0121 12.24C86.1561 12.096 86.3201 12.024 86.5041 12.024C86.6881 12.024 86.8481 12.092 86.9841 12.228C87.1201 12.364 87.1881 12.524 87.1881 12.708C87.1881 12.892 87.1121 13.06 86.9601 13.212L85.0761 14.964L87.1641 16.836ZM95.5475 18.108C94.7315 18.108 94.0155 17.932 93.3995 17.58C92.7915 17.228 92.3235 16.724 91.9955 16.068C91.6675 15.412 91.5035 14.644 91.5035 13.764C91.5035 12.884 91.6675 12.12 91.9955 11.472C92.3235 10.816 92.7915 10.312 93.3995 9.96C94.0155 9.608 94.7315 9.432 95.5475 9.432C96.0755 9.432 96.5715 9.512 97.0355 9.672C97.4995 9.824 97.9115 10.048 98.2715 10.344C98.3755 10.424 98.4475 10.508 98.4875 10.596C98.5275 10.684 98.5475 10.792 98.5475 10.92C98.5475 11.096 98.4995 11.244 98.4035 11.364C98.3075 11.484 98.1915 11.544 98.0555 11.544C97.8955 11.544 97.7315 11.488 97.5635 11.376C97.2195 11.12 96.8995 10.944 96.6035 10.848C96.3075 10.744 95.9795 10.692 95.6195 10.692C94.7875 10.692 94.1555 10.952 93.7235 11.472C93.2995 11.992 93.0875 12.756 93.0875 13.764C93.0875 14.78 93.2995 15.548 93.7235 16.068C94.1555 16.588 94.7875 16.848 95.6195 16.848C95.9635 16.848 96.2795 16.796 96.5675 16.692C96.8635 16.588 97.1955 16.412 97.5635 16.164C97.6435 16.116 97.7235 16.076 97.8035 16.044C97.8835 16.012 97.9675 15.996 98.0555 15.996C98.1915 15.996 98.3075 16.056 98.4035 16.176C98.4995 16.296 98.5475 16.444 98.5475 16.62C98.5475 16.74 98.5275 16.848 98.4875 16.944C98.4475 17.032 98.3755 17.116 98.2715 17.196C97.9115 17.492 97.4995 17.72 97.0355 17.88C96.5715 18.032 96.0755 18.108 95.5475 18.108ZM100.512 18.072C100.296 18.072 100.116 18.012 99.9723 17.892C99.8363 17.764 99.7683 17.584 99.7683 17.352V10.188C99.7683 9.956 99.8363 9.78 99.9723 9.66C100.116 9.54 100.296 9.48 100.512 9.48C100.728 9.48 100.908 9.54 101.052 9.66C101.196 9.78 101.268 9.956 101.268 10.188V17.352C101.268 17.584 101.196 17.764 101.052 17.892C100.908 18.012 100.728 18.072 100.512 18.072ZM105.359 11.988C106.175 11.988 106.779 12.192 107.171 12.6C107.571 13 107.771 13.612 107.771 14.436V17.364C107.771 17.58 107.707 17.752 107.579 17.88C107.451 18 107.275 18.06 107.051 18.06C106.843 18.06 106.671 17.996 106.535 17.868C106.407 17.74 106.343 17.572 106.343 17.364V17.1C106.207 17.412 105.991 17.656 105.695 17.832C105.407 18.008 105.071 18.096 104.687 18.096C104.295 18.096 103.939 18.016 103.619 17.856C103.299 17.696 103.047 17.476 102.863 17.196C102.679 16.916 102.587 16.604 102.587 16.26C102.587 15.828 102.695 15.488 102.911 15.24C103.135 14.992 103.495 14.812 103.991 14.7C104.487 14.588 105.171 14.532 106.043 14.532H106.343V14.256C106.343 13.864 106.259 13.58 106.091 13.404C105.923 13.22 105.651 13.128 105.275 13.128C105.043 13.128 104.807 13.164 104.567 13.236C104.327 13.3 104.043 13.396 103.715 13.524C103.507 13.628 103.355 13.68 103.259 13.68C103.115 13.68 102.995 13.628 102.899 13.524C102.811 13.42 102.767 13.284 102.767 13.116C102.767 12.98 102.799 12.864 102.863 12.768C102.935 12.664 103.051 12.568 103.211 12.48C103.491 12.328 103.823 12.208 104.207 12.12C104.599 12.032 104.983 11.988 105.359 11.988ZM104.987 17.016C105.387 17.016 105.711 16.884 105.959 16.62C106.215 16.348 106.343 16 106.343 15.576V15.324H106.127C105.591 15.324 105.175 15.348 104.879 15.396C104.583 15.444 104.371 15.528 104.243 15.648C104.115 15.768 104.051 15.932 104.051 16.14C104.051 16.396 104.139 16.608 104.315 16.776C104.499 16.936 104.723 17.016 104.987 17.016ZM112.572 12.012C112.78 11.996 112.944 12.04 113.064 12.144C113.184 12.248 113.244 12.404 113.244 12.612C113.244 12.828 113.192 12.988 113.088 13.092C112.984 13.196 112.796 13.264 112.524 13.296L112.164 13.332C111.692 13.38 111.344 13.54 111.12 13.812C110.904 14.084 110.796 14.424 110.796 14.832V17.352C110.796 17.584 110.724 17.764 110.58 17.892C110.436 18.012 110.256 18.072 110.04 18.072C109.824 18.072 109.644 18.012 109.5 17.892C109.364 17.764 109.296 17.584 109.296 17.352V12.708C109.296 12.484 109.364 12.312 109.5 12.192C109.644 12.072 109.82 12.012 110.028 12.012C110.236 12.012 110.404 12.072 110.532 12.192C110.66 12.304 110.724 12.468 110.724 12.684V13.164C110.876 12.812 111.1 12.54 111.396 12.348C111.7 12.156 112.036 12.048 112.404 12.024L112.572 12.012ZM119.109 16.836C119.269 16.988 119.349 17.16 119.349 17.352C119.349 17.536 119.281 17.7 119.145 17.844C119.017 17.988 118.865 18.06 118.689 18.06C118.513 18.06 118.349 17.988 118.197 17.844L115.389 15.3V17.352C115.389 17.584 115.317 17.76 115.173 17.88C115.029 18 114.849 18.06 114.633 18.06C114.417 18.06 114.237 18 114.093 17.88C113.957 17.76 113.889 17.584 113.889 17.352V10.188C113.889 9.956 113.957 9.78 114.093 9.66C114.237 9.54 114.417 9.48 114.633 9.48C114.849 9.48 115.029 9.54 115.173 9.66C115.317 9.78 115.389 9.956 115.389 10.188V14.7L117.957 12.24C118.101 12.096 118.265 12.024 118.449 12.024C118.633 12.024 118.793 12.092 118.929 12.228C119.065 12.364 119.133 12.524 119.133 12.708C119.133 12.892 119.057 13.06 118.905 13.212L117.021 14.964L119.109 16.836ZM124.885 16.392C125.021 16.392 125.129 16.444 125.209 16.548C125.297 16.652 125.341 16.792 125.341 16.968C125.341 17.216 125.193 17.424 124.897 17.592C124.625 17.744 124.317 17.868 123.973 17.964C123.629 18.052 123.301 18.096 122.989 18.096C122.045 18.096 121.297 17.824 120.745 17.28C120.193 16.736 119.917 15.992 119.917 15.048C119.917 14.448 120.037 13.916 120.277 13.452C120.517 12.988 120.853 12.628 121.285 12.372C121.725 12.116 122.221 11.988 122.773 11.988C123.301 11.988 123.761 12.104 124.153 12.336C124.545 12.568 124.849 12.896 125.065 13.32C125.281 13.744 125.389 14.244 125.389 14.82C125.389 15.164 125.237 15.336 124.933 15.336H121.393C121.441 15.888 121.597 16.296 121.861 16.56C122.125 16.816 122.509 16.944 123.013 16.944C123.269 16.944 123.493 16.912 123.685 16.848C123.885 16.784 124.109 16.696 124.357 16.584C124.597 16.456 124.773 16.392 124.885 16.392ZM122.809 13.044C122.401 13.044 122.073 13.172 121.825 13.428C121.585 13.684 121.441 14.052 121.393 14.532H124.105C124.089 14.044 123.969 13.676 123.745 13.428C123.521 13.172 123.209 13.044 122.809 13.044Z" fill="#234CAD"/>
</g>
</g>
<g clip-path="url(#clip2_3155_610)">
<circle cx="22.5" cy="22.5" r="22.5" fill="#F2F6FF"/>
<path d="M22.126 17.77C22.3687 17.77 22.5637 17.848 22.711 18.004C22.8583 18.1513 22.932 18.3507 22.932 18.602V26.298C22.932 26.5407 22.8627 26.7313 22.724 26.87C22.5853 27.0087 22.4033 27.078 22.178 27.078C21.9527 27.078 21.775 27.0087 21.645 26.87C21.515 26.7313 21.45 26.5407 21.45 26.298V20.942L19.24 25.128C19.136 25.3187 19.0233 25.4617 18.902 25.557C18.7807 25.6437 18.6377 25.687 18.473 25.687C18.3083 25.687 18.1653 25.6437 18.044 25.557C17.9227 25.4703 17.81 25.3273 17.706 25.128L15.483 21.007V26.298C15.483 26.532 15.4137 26.7227 15.275 26.87C15.145 27.0087 14.9673 27.078 14.742 27.078C14.5167 27.078 14.339 27.0087 14.209 26.87C14.079 26.7313 14.014 26.5407 14.014 26.298V18.602C14.014 18.3507 14.0833 18.1513 14.222 18.004C14.3693 17.848 14.5643 17.77 14.807 17.77C15.145 17.77 15.4093 17.9563 15.6 18.329L18.486 23.828L21.359 18.329C21.5497 17.9563 21.8053 17.77 22.126 17.77ZM29.0137 27.117C28.1297 27.117 27.354 26.9263 26.6867 26.545C26.028 26.1637 25.521 25.6177 25.1657 24.907C24.8103 24.1963 24.6327 23.3643 24.6327 22.411C24.6327 21.4577 24.8103 20.63 25.1657 19.928C25.521 19.2173 26.028 18.6713 26.6867 18.29C27.354 17.9087 28.1297 17.718 29.0137 17.718C29.5857 17.718 30.123 17.8047 30.6257 17.978C31.1283 18.1427 31.5747 18.3853 31.9647 18.706C32.0773 18.7927 32.1553 18.8837 32.1987 18.979C32.242 19.0743 32.2637 19.1913 32.2637 19.33C32.2637 19.5207 32.2117 19.681 32.1077 19.811C32.0037 19.941 31.878 20.006 31.7307 20.006C31.5573 20.006 31.3797 19.9453 31.1977 19.824C30.825 19.5467 30.4783 19.356 30.1577 19.252C29.837 19.1393 29.4817 19.083 29.0917 19.083C28.1903 19.083 27.5057 19.3647 27.0377 19.928C26.5783 20.4913 26.3487 21.319 26.3487 22.411C26.3487 23.5117 26.5783 24.3437 27.0377 24.907C27.5057 25.4703 28.1903 25.752 29.0917 25.752C29.4643 25.752 29.8067 25.6957 30.1187 25.583C30.4393 25.4703 30.799 25.2797 31.1977 25.011C31.2843 24.959 31.371 24.9157 31.4577 24.881C31.5443 24.8463 31.6353 24.829 31.7307 24.829C31.878 24.829 32.0037 24.894 32.1077 25.024C32.2117 25.154 32.2637 25.3143 32.2637 25.505C32.2637 25.635 32.242 25.752 32.1987 25.856C32.1553 25.9513 32.0773 26.0423 31.9647 26.129C31.5747 26.4497 31.1283 26.6967 30.6257 26.87C30.123 27.0347 29.5857 27.117 29.0137 27.117Z" fill="#234CAD"/>
</g>
<g clip-path="url(#clip3_3155_610)">
<circle cx="39" cy="6" r="5.25" fill="#234CAD" stroke="white" stroke-width="1.5"/>
<path d="M40.1 6.048C40.18 6.048 40.24 6.06533 40.28 6.1C40.32 6.13467 40.34 6.184 40.34 6.248C40.34 6.38133 40.26 6.448 40.1 6.448H39.896V6.764C39.896 6.84667 39.872 6.91067 39.824 6.956C39.7787 7.00133 39.7187 7.024 39.644 7.024C39.5693 7.024 39.508 7.00133 39.46 6.956C39.4147 6.91067 39.392 6.84667 39.392 6.764V6.448H38.344C38.272 6.448 38.216 6.428 38.176 6.388C38.136 6.34533 38.116 6.29333 38.116 6.232C38.116 6.168 38.1373 6.10667 38.18 6.048L39.416 4.272C39.4427 4.23467 39.476 4.20667 39.516 4.188C39.556 4.16667 39.5973 4.156 39.64 4.156C39.7093 4.156 39.7693 4.17867 39.82 4.224C39.8707 4.26933 39.896 4.33333 39.896 4.416V6.048H40.1ZM38.648 6.048H39.392V4.972L38.648 6.048Z" fill="#F7FAFC"/>
</g>
<defs>
<clipPath id="clip0_3155_610">
<rect width="171" height="34" fill="white" transform="translate(60 6)"/>
</clipPath>
<clipPath id="clip1_3155_610">
<rect width="139" height="34" fill="white" transform="translate(60 6)"/>
</clipPath>
<clipPath id="clip2_3155_610">
<rect width="45" height="45" fill="white"/>
</clipPath>
<clipPath id="clip3_3155_610">
<rect width="12" height="12" fill="white" transform="translate(33)"/>
</clipPath>
</defs>
</svg>
