<svg width="310" height="60" viewBox="0 0 310 60" fill="none" xmlns="http://www.w3.org/2000/svg">
<g clip-path="url(#clip0_3155_625)">
<path opacity="0.75" d="M274.27 13.58C274.717 13.58 275.107 13.6733 275.44 13.86C275.78 14.0467 276.04 14.31 276.22 14.65C276.407 14.9833 276.5 15.37 276.5 15.81C276.5 16.25 276.4 16.6433 276.2 16.99C276 17.33 275.72 17.5967 275.36 17.79C275.007 17.9767 274.597 18.07 274.13 18.07C273.717 18.07 273.313 17.9967 272.92 17.85C272.527 17.7033 272.193 17.5033 271.92 17.25C271.813 17.15 271.76 17.0367 271.76 16.91C271.76 16.81 271.787 16.7267 271.84 16.66C271.893 16.5933 271.957 16.56 272.03 16.56C272.123 16.56 272.217 16.5967 272.31 16.67C272.603 16.91 272.897 17.09 273.19 17.21C273.483 17.3233 273.79 17.38 274.11 17.38C274.603 17.38 274.99 17.24 275.27 16.96C275.55 16.68 275.69 16.3 275.69 15.82C275.69 15.3533 275.55 14.9767 275.27 14.69C274.99 14.4033 274.613 14.26 274.14 14.26C273.533 14.26 273.04 14.4933 272.66 14.96C272.567 15.06 272.453 15.11 272.32 15.11C272.227 15.11 272.147 15.0833 272.08 15.03C272.02 14.97 271.99 14.89 271.99 14.79V11.34C271.99 11.2267 272.023 11.1333 272.09 11.06C272.163 10.9867 272.263 10.95 272.39 10.95H275.91C276.03 10.95 276.123 10.98 276.19 11.04C276.263 11.1 276.3 11.1833 276.3 11.29C276.3 11.3967 276.263 11.48 276.19 11.54C276.123 11.6 276.03 11.63 275.91 11.63H272.8V14.14C272.987 13.96 273.203 13.8233 273.45 13.73C273.703 13.63 273.977 13.58 274.27 13.58ZM278.146 14.15C277.986 14.15 277.853 14.1 277.746 14C277.639 13.8933 277.586 13.7567 277.586 13.59C277.586 13.4233 277.639 13.29 277.746 13.19C277.853 13.0833 277.986 13.03 278.146 13.03C278.299 13.03 278.426 13.0833 278.526 13.19C278.633 13.29 278.686 13.4233 278.686 13.59C278.686 13.7567 278.633 13.8933 278.526 14C278.426 14.1 278.299 14.15 278.146 14.15ZM278.146 18.05C277.986 18.05 277.853 18 277.746 17.9C277.639 17.7933 277.586 17.6567 277.586 17.49C277.586 17.3233 277.639 17.1867 277.746 17.08C277.853 16.9733 277.986 16.92 278.146 16.92C278.299 16.92 278.426 16.9733 278.526 17.08C278.633 17.1867 278.686 17.3233 278.686 17.49C278.686 17.6567 278.633 17.7933 278.526 17.9C278.426 18 278.299 18.05 278.146 18.05ZM284.361 17.31C284.481 17.31 284.575 17.34 284.641 17.4C284.708 17.46 284.741 17.5433 284.741 17.65C284.741 17.8833 284.615 18 284.361 18H280.441C280.328 18 280.235 17.9667 280.161 17.9C280.088 17.8267 280.051 17.74 280.051 17.64C280.051 17.5133 280.098 17.4033 280.191 17.31L282.601 14.66C282.935 14.2867 283.175 13.9533 283.321 13.66C283.475 13.36 283.551 13.06 283.551 12.76C283.551 12.3733 283.438 12.0767 283.211 11.87C282.991 11.6633 282.678 11.56 282.271 11.56C281.951 11.56 281.645 11.62 281.351 11.74C281.058 11.8533 280.765 12.03 280.471 12.27C280.371 12.35 280.278 12.39 280.191 12.39C280.118 12.39 280.055 12.3567 280.001 12.29C279.948 12.2167 279.921 12.13 279.921 12.03C279.921 11.89 279.975 11.7767 280.081 11.69C280.355 11.4367 280.688 11.2367 281.081 11.09C281.475 10.9433 281.878 10.87 282.291 10.87C282.925 10.87 283.428 11.0367 283.801 11.37C284.181 11.7033 284.371 12.1533 284.371 12.72C284.371 13.1267 284.278 13.5167 284.091 13.89C283.911 14.2633 283.611 14.68 283.191 15.14L281.191 17.31H284.361ZM290.307 10.95C290.427 10.95 290.517 10.9833 290.577 11.05C290.644 11.11 290.677 11.19 290.677 11.29C290.677 11.3833 290.647 11.4867 290.587 11.6L287.267 17.85C287.187 17.9967 287.071 18.07 286.917 18.07C286.811 18.07 286.714 18.0333 286.627 17.96C286.547 17.8867 286.507 17.7967 286.507 17.69C286.507 17.6167 286.531 17.5433 286.577 17.47L289.697 11.64H286.247C286.127 11.64 286.034 11.61 285.967 11.55C285.907 11.49 285.877 11.4067 285.877 11.3C285.877 11.1867 285.907 11.1 285.967 11.04C286.034 10.98 286.127 10.95 286.247 10.95H290.307ZM300.792 17.53C300.818 17.5833 300.832 17.64 300.832 17.7C300.832 17.8 300.792 17.8833 300.712 17.95C300.638 18.0167 300.548 18.05 300.442 18.05C300.275 18.05 300.158 17.97 300.092 17.81L299.382 16.19H295.612L294.892 17.81C294.825 17.97 294.708 18.05 294.542 18.05C294.435 18.05 294.342 18.0167 294.262 17.95C294.182 17.8767 294.142 17.79 294.142 17.69C294.142 17.6367 294.155 17.5833 294.182 17.53L297.042 11.17C297.082 11.0767 297.142 11.0067 297.222 10.96C297.302 10.9133 297.388 10.89 297.482 10.89C297.582 10.89 297.672 10.9167 297.752 10.97C297.832 11.0167 297.892 11.0833 297.932 11.17L300.792 17.53ZM295.912 15.51H299.082L297.492 11.92L295.912 15.51ZM308.247 10.9C308.374 10.9 308.471 10.94 308.537 11.02C308.611 11.0933 308.647 11.1933 308.647 11.32V17.65C308.647 17.77 308.614 17.8667 308.547 17.94C308.481 18.0133 308.387 18.05 308.267 18.05C308.147 18.05 308.057 18.0133 307.997 17.94C307.937 17.8667 307.907 17.77 307.907 17.65V12.54L305.737 16.7C305.644 16.8933 305.507 16.99 305.327 16.99C305.154 16.99 305.017 16.8933 304.917 16.7L302.737 12.59V17.65C302.737 17.77 302.704 17.8667 302.637 17.94C302.577 18.0133 302.487 18.05 302.367 18.05C302.247 18.05 302.154 18.0133 302.087 17.94C302.021 17.8667 301.987 17.77 301.987 17.65V11.32C301.987 11.1933 302.024 11.0933 302.097 11.02C302.171 10.94 302.271 10.9 302.397 10.9C302.564 10.9 302.697 10.9967 302.797 11.19L305.337 16.06L307.847 11.19C307.901 11.0833 307.957 11.01 308.017 10.97C308.084 10.9233 308.161 10.9 308.247 10.9Z" fill="#234CAD"/>
<g clip-path="url(#clip1_3155_625)">
<path d="M91.856 37.78C91.888 37.676 91.944 37.6 92.024 37.552C92.104 37.496 92.192 37.468 92.288 37.468C92.416 37.468 92.524 37.508 92.612 37.588C92.708 37.66 92.756 37.76 92.756 37.888C92.756 37.944 92.744 38.008 92.72 38.08L90.008 45.724C89.968 45.836 89.9 45.924 89.804 45.988C89.708 46.044 89.6 46.072 89.48 46.072C89.368 46.072 89.264 46.044 89.168 45.988C89.072 45.924 89.004 45.836 88.964 45.724L86.612 39.076L84.236 45.724C84.196 45.836 84.128 45.924 84.032 45.988C83.936 46.044 83.832 46.072 83.72 46.072C83.608 46.072 83.504 46.044 83.408 45.988C83.312 45.924 83.244 45.836 83.204 45.724L80.48 38.08C80.456 38.016 80.444 37.956 80.444 37.9C80.444 37.772 80.492 37.668 80.588 37.588C80.692 37.508 80.808 37.468 80.936 37.468C81.032 37.468 81.12 37.496 81.2 37.552C81.288 37.6 81.348 37.676 81.38 37.78L83.744 44.596L86.144 37.852C86.184 37.732 86.248 37.644 86.336 37.588C86.424 37.524 86.52 37.492 86.624 37.492C86.728 37.492 86.824 37.524 86.912 37.588C87 37.652 87.064 37.744 87.104 37.864L89.468 44.62L91.856 37.78ZM95.8631 46.084C95.3111 46.084 94.8231 45.96 94.3991 45.712C93.9831 45.464 93.6591 45.112 93.4271 44.656C93.2031 44.192 93.0911 43.656 93.0911 43.048C93.0911 42.44 93.2031 41.908 93.4271 41.452C93.6591 40.988 93.9831 40.632 94.3991 40.384C94.8231 40.136 95.3111 40.012 95.8631 40.012C96.4151 40.012 96.9031 40.136 97.3271 40.384C97.7511 40.632 98.0751 40.988 98.2991 41.452C98.5311 41.908 98.6471 42.44 98.6471 43.048C98.6471 43.656 98.5311 44.192 98.2991 44.656C98.0751 45.112 97.7511 45.464 97.3271 45.712C96.9031 45.96 96.4151 46.084 95.8631 46.084ZM95.8631 45.28C96.4391 45.28 96.8791 45.092 97.1831 44.716C97.4951 44.332 97.6511 43.776 97.6511 43.048C97.6511 42.336 97.4951 41.788 97.1831 41.404C96.8711 41.012 96.4311 40.816 95.8631 40.816C95.2951 40.816 94.8551 41.012 94.5431 41.404C94.2311 41.788 94.0751 42.336 94.0751 43.048C94.0751 43.768 94.2271 44.32 94.5311 44.704C94.8431 45.088 95.2871 45.28 95.8631 45.28ZM104.535 40.036C104.687 40.036 104.803 40.08 104.883 40.168C104.971 40.256 105.015 40.372 105.015 40.516V45.592C105.015 45.728 104.971 45.84 104.883 45.928C104.803 46.016 104.687 46.06 104.535 46.06C104.391 46.06 104.275 46.02 104.187 45.94C104.107 45.852 104.067 45.74 104.067 45.604V45.004C103.883 45.356 103.623 45.624 103.287 45.808C102.959 45.992 102.587 46.084 102.171 46.084C101.475 46.084 100.951 45.892 100.599 45.508C100.247 45.116 100.071 44.54 100.071 43.78V40.516C100.071 40.372 100.115 40.256 100.203 40.168C100.291 40.08 100.411 40.036 100.563 40.036C100.715 40.036 100.831 40.08 100.911 40.168C100.999 40.256 101.043 40.372 101.043 40.516V43.756C101.043 44.276 101.147 44.66 101.355 44.908C101.563 45.148 101.891 45.268 102.339 45.268C102.851 45.268 103.263 45.104 103.575 44.776C103.887 44.44 104.043 44 104.043 43.456V40.516C104.043 40.372 104.087 40.256 104.175 40.168C104.263 40.08 104.383 40.036 104.535 40.036ZM107.314 46.06C107.17 46.06 107.05 46.02 106.954 45.94C106.866 45.852 106.822 45.732 106.822 45.58V37.96C106.822 37.808 106.866 37.692 106.954 37.612C107.05 37.524 107.17 37.48 107.314 37.48C107.45 37.48 107.562 37.524 107.65 37.612C107.746 37.692 107.794 37.808 107.794 37.96V45.58C107.794 45.732 107.746 45.852 107.65 45.94C107.562 46.02 107.45 46.06 107.314 46.06ZM114.303 37.48C114.455 37.48 114.575 37.524 114.663 37.612C114.751 37.7 114.795 37.812 114.795 37.948V45.58C114.795 45.724 114.751 45.84 114.663 45.928C114.575 46.016 114.455 46.06 114.303 46.06C114.151 46.06 114.031 46.016 113.943 45.928C113.863 45.84 113.823 45.724 113.823 45.58V44.932C113.647 45.3 113.387 45.584 113.043 45.784C112.707 45.984 112.311 46.084 111.855 46.084C111.343 46.084 110.891 45.956 110.499 45.7C110.107 45.444 109.803 45.088 109.587 44.632C109.371 44.168 109.263 43.632 109.263 43.024C109.263 42.424 109.371 41.896 109.587 41.44C109.803 40.984 110.107 40.632 110.499 40.384C110.891 40.136 111.343 40.012 111.855 40.012C112.311 40.012 112.707 40.112 113.043 40.312C113.387 40.512 113.647 40.796 113.823 41.164V37.948C113.823 37.804 113.863 37.692 113.943 37.612C114.031 37.524 114.151 37.48 114.303 37.48ZM112.047 45.28C112.615 45.28 113.051 45.088 113.355 44.704C113.667 44.312 113.823 43.76 113.823 43.048C113.823 42.336 113.667 41.788 113.355 41.404C113.051 41.02 112.615 40.828 112.047 40.828C111.479 40.828 111.035 41.02 110.715 41.404C110.403 41.788 110.247 42.328 110.247 43.024C110.247 43.736 110.403 44.292 110.715 44.692C111.035 45.084 111.479 45.28 112.047 45.28ZM123.901 40.336C123.989 40.144 124.129 40.048 124.321 40.048C124.441 40.048 124.549 40.088 124.645 40.168C124.741 40.248 124.789 40.348 124.789 40.468C124.789 40.54 124.773 40.604 124.741 40.66L121.369 47.932C121.329 48.02 121.269 48.088 121.189 48.136C121.117 48.184 121.041 48.208 120.961 48.208C120.841 48.208 120.733 48.168 120.637 48.088C120.549 48.016 120.505 47.92 120.505 47.8C120.505 47.736 120.521 47.672 120.553 47.608L121.393 45.796L119.017 40.66C118.985 40.604 118.969 40.544 118.969 40.48C118.969 40.36 119.021 40.256 119.125 40.168C119.237 40.08 119.357 40.036 119.485 40.036C119.565 40.036 119.641 40.06 119.713 40.108C119.793 40.156 119.853 40.224 119.893 40.312L121.897 44.812L123.901 40.336ZM128.207 46.084C127.655 46.084 127.167 45.96 126.743 45.712C126.327 45.464 126.003 45.112 125.771 44.656C125.547 44.192 125.435 43.656 125.435 43.048C125.435 42.44 125.547 41.908 125.771 41.452C126.003 40.988 126.327 40.632 126.743 40.384C127.167 40.136 127.655 40.012 128.207 40.012C128.759 40.012 129.247 40.136 129.671 40.384C130.095 40.632 130.419 40.988 130.643 41.452C130.875 41.908 130.991 42.44 130.991 43.048C130.991 43.656 130.875 44.192 130.643 44.656C130.419 45.112 130.095 45.464 129.671 45.712C129.247 45.96 128.759 46.084 128.207 46.084ZM128.207 45.28C128.783 45.28 129.223 45.092 129.527 44.716C129.839 44.332 129.995 43.776 129.995 43.048C129.995 42.336 129.839 41.788 129.527 41.404C129.215 41.012 128.775 40.816 128.207 40.816C127.639 40.816 127.199 41.012 126.887 41.404C126.575 41.788 126.419 42.336 126.419 43.048C126.419 43.768 126.571 44.32 126.875 44.704C127.187 45.088 127.631 45.28 128.207 45.28ZM136.879 40.036C137.031 40.036 137.147 40.08 137.227 40.168C137.315 40.256 137.359 40.372 137.359 40.516V45.592C137.359 45.728 137.315 45.84 137.227 45.928C137.147 46.016 137.031 46.06 136.879 46.06C136.735 46.06 136.619 46.02 136.531 45.94C136.451 45.852 136.411 45.74 136.411 45.604V45.004C136.227 45.356 135.967 45.624 135.631 45.808C135.303 45.992 134.931 46.084 134.515 46.084C133.819 46.084 133.295 45.892 132.943 45.508C132.591 45.116 132.415 44.54 132.415 43.78V40.516C132.415 40.372 132.459 40.256 132.547 40.168C132.635 40.08 132.755 40.036 132.907 40.036C133.059 40.036 133.175 40.08 133.255 40.168C133.343 40.256 133.387 40.372 133.387 40.516V43.756C133.387 44.276 133.491 44.66 133.699 44.908C133.907 45.148 134.235 45.268 134.683 45.268C135.195 45.268 135.607 45.104 135.919 44.776C136.231 44.44 136.387 44 136.387 43.456V40.516C136.387 40.372 136.431 40.256 136.519 40.168C136.607 40.08 136.727 40.036 136.879 40.036ZM142.751 46.06C142.607 46.06 142.487 46.02 142.391 45.94C142.303 45.852 142.259 45.732 142.259 45.58V37.96C142.259 37.808 142.303 37.692 142.391 37.612C142.487 37.524 142.607 37.48 142.751 37.48C142.887 37.48 142.999 37.524 143.087 37.612C143.183 37.692 143.231 37.808 143.231 37.96V45.58C143.231 45.732 143.183 45.852 143.087 45.94C142.999 46.02 142.887 46.06 142.751 46.06ZM145.54 46.06C145.396 46.06 145.276 46.02 145.18 45.94C145.092 45.852 145.048 45.732 145.048 45.58V40.516C145.048 40.364 145.092 40.248 145.18 40.168C145.276 40.08 145.396 40.036 145.54 40.036C145.684 40.036 145.8 40.08 145.888 40.168C145.976 40.248 146.02 40.364 146.02 40.516V45.58C146.02 45.74 145.976 45.86 145.888 45.94C145.8 46.02 145.684 46.06 145.54 46.06ZM145.54 38.776C145.348 38.776 145.192 38.72 145.072 38.608C144.952 38.496 144.892 38.348 144.892 38.164C144.892 37.988 144.952 37.844 145.072 37.732C145.192 37.62 145.348 37.564 145.54 37.564C145.732 37.564 145.888 37.62 146.008 37.732C146.128 37.844 146.188 37.988 146.188 38.164C146.188 38.348 146.128 38.496 146.008 38.608C145.888 38.72 145.732 38.776 145.54 38.776ZM152.506 45.232C152.634 45.352 152.698 45.48 152.698 45.616C152.698 45.736 152.654 45.84 152.566 45.928C152.486 46.016 152.386 46.06 152.266 46.06C152.162 46.06 152.054 46.012 151.942 45.916L148.81 43.216V45.58C148.81 45.732 148.762 45.852 148.666 45.94C148.578 46.02 148.466 46.06 148.33 46.06C148.186 46.06 148.066 46.02 147.97 45.94C147.882 45.852 147.838 45.732 147.838 45.58V37.96C147.838 37.808 147.882 37.692 147.97 37.612C148.066 37.524 148.186 37.48 148.33 37.48C148.466 37.48 148.578 37.524 148.666 37.612C148.762 37.692 148.81 37.808 148.81 37.96V42.832L151.678 40.204C151.774 40.108 151.882 40.06 152.002 40.06C152.122 40.06 152.226 40.104 152.314 40.192C152.402 40.28 152.446 40.384 152.446 40.504C152.446 40.64 152.39 40.76 152.278 40.864L149.914 42.976L152.506 45.232ZM158.256 44.644C158.344 44.644 158.42 44.68 158.484 44.752C158.548 44.824 158.58 44.916 158.58 45.028C158.58 45.228 158.44 45.412 158.16 45.58C157.872 45.748 157.568 45.876 157.248 45.964C156.928 46.044 156.616 46.084 156.312 46.084C155.408 46.084 154.692 45.816 154.164 45.28C153.644 44.744 153.384 44.004 153.384 43.06C153.384 42.46 153.5 41.932 153.732 41.476C153.964 41.012 154.288 40.652 154.704 40.396C155.128 40.14 155.608 40.012 156.144 40.012C156.904 40.012 157.508 40.26 157.956 40.756C158.404 41.252 158.628 41.924 158.628 42.772C158.628 42.932 158.596 43.048 158.532 43.12C158.468 43.192 158.364 43.228 158.22 43.228H154.356C154.428 44.604 155.08 45.292 156.312 45.292C156.624 45.292 156.892 45.252 157.116 45.172C157.34 45.084 157.58 44.968 157.836 44.824C158.044 44.704 158.184 44.644 158.256 44.644ZM156.156 40.768C155.644 40.768 155.232 40.928 154.92 41.248C154.616 41.568 154.436 42.02 154.38 42.604H157.776C157.76 42.012 157.612 41.56 157.332 41.248C157.052 40.928 156.66 40.768 156.156 40.768ZM165.854 45.292C166.134 45.316 166.274 45.444 166.274 45.676C166.274 45.812 166.222 45.916 166.118 45.988C166.022 46.052 165.874 46.076 165.674 46.06L165.35 46.036C164.71 45.988 164.238 45.796 163.934 45.46C163.63 45.124 163.478 44.616 163.478 43.936V40.924H162.674C162.538 40.924 162.43 40.892 162.35 40.828C162.278 40.756 162.242 40.664 162.242 40.552C162.242 40.432 162.278 40.336 162.35 40.264C162.43 40.192 162.538 40.156 162.674 40.156H163.478V38.8C163.478 38.648 163.522 38.532 163.61 38.452C163.698 38.364 163.818 38.32 163.97 38.32C164.114 38.32 164.23 38.364 164.318 38.452C164.406 38.532 164.45 38.648 164.45 38.8V40.156H165.782C165.91 40.156 166.01 40.192 166.082 40.264C166.162 40.336 166.202 40.432 166.202 40.552C166.202 40.664 166.162 40.756 166.082 40.828C166.01 40.892 165.91 40.924 165.782 40.924H164.45V43.984C164.45 44.424 164.538 44.744 164.714 44.944C164.898 45.136 165.17 45.244 165.53 45.268L165.854 45.292ZM169.656 46.084C169.104 46.084 168.616 45.96 168.192 45.712C167.776 45.464 167.452 45.112 167.22 44.656C166.996 44.192 166.884 43.656 166.884 43.048C166.884 42.44 166.996 41.908 167.22 41.452C167.452 40.988 167.776 40.632 168.192 40.384C168.616 40.136 169.104 40.012 169.656 40.012C170.208 40.012 170.696 40.136 171.12 40.384C171.544 40.632 171.868 40.988 172.092 41.452C172.324 41.908 172.44 42.44 172.44 43.048C172.44 43.656 172.324 44.192 172.092 44.656C171.868 45.112 171.544 45.464 171.12 45.712C170.696 45.96 170.208 46.084 169.656 46.084ZM169.656 45.28C170.232 45.28 170.672 45.092 170.976 44.716C171.288 44.332 171.444 43.776 171.444 43.048C171.444 42.336 171.288 41.788 170.976 41.404C170.664 41.012 170.224 40.816 169.656 40.816C169.088 40.816 168.648 41.012 168.336 41.404C168.024 41.788 167.868 42.336 167.868 43.048C167.868 43.768 168.02 44.32 168.324 44.704C168.636 45.088 169.08 45.28 169.656 45.28ZM179.934 40.012C180.622 40.012 181.142 40.208 181.494 40.6C181.846 40.984 182.022 41.56 182.022 42.328V45.58C182.022 45.732 181.978 45.852 181.89 45.94C181.802 46.02 181.686 46.06 181.542 46.06C181.39 46.06 181.27 46.02 181.182 45.94C181.094 45.852 181.05 45.732 181.05 45.58V42.352C181.05 41.832 180.942 41.448 180.726 41.2C180.518 40.952 180.182 40.828 179.718 40.828C179.182 40.828 178.754 40.992 178.434 41.32C178.114 41.648 177.954 42.092 177.954 42.652V45.58C177.954 45.732 177.91 45.852 177.822 45.94C177.742 46.02 177.626 46.06 177.474 46.06C177.322 46.06 177.202 46.02 177.114 45.94C177.026 45.852 176.982 45.732 176.982 45.58V37.948C176.982 37.812 177.026 37.7 177.114 37.612C177.21 37.524 177.33 37.48 177.474 37.48C177.626 37.48 177.742 37.524 177.822 37.612C177.91 37.692 177.954 37.804 177.954 37.948V41.092C178.146 40.74 178.414 40.472 178.758 40.288C179.102 40.104 179.494 40.012 179.934 40.012ZM186.19 40.012C187.654 40.012 188.386 40.78 188.386 42.316V45.58C188.386 45.724 188.342 45.84 188.254 45.928C188.174 46.016 188.062 46.06 187.918 46.06C187.774 46.06 187.658 46.016 187.57 45.928C187.482 45.84 187.438 45.724 187.438 45.58V45.004C187.286 45.348 187.054 45.616 186.742 45.808C186.43 45.992 186.07 46.084 185.662 46.084C185.286 46.084 184.938 46.008 184.618 45.856C184.306 45.704 184.058 45.492 183.874 45.22C183.69 44.948 183.598 44.648 183.598 44.32C183.598 43.88 183.71 43.54 183.934 43.3C184.158 43.052 184.526 42.876 185.038 42.772C185.55 42.66 186.262 42.604 187.174 42.604H187.438V42.208C187.438 41.728 187.338 41.376 187.138 41.152C186.946 40.928 186.63 40.816 186.19 40.816C185.646 40.816 185.094 40.964 184.534 41.26C184.318 41.396 184.166 41.464 184.078 41.464C183.982 41.464 183.902 41.428 183.838 41.356C183.774 41.284 183.742 41.192 183.742 41.08C183.742 40.968 183.774 40.872 183.838 40.792C183.91 40.704 184.022 40.616 184.174 40.528C184.454 40.368 184.77 40.244 185.122 40.156C185.482 40.06 185.838 40.012 186.19 40.012ZM185.794 45.316C186.274 45.316 186.666 45.156 186.97 44.836C187.282 44.508 187.438 44.088 187.438 43.576V43.228H187.222C186.518 43.228 185.982 43.26 185.614 43.324C185.246 43.38 184.982 43.48 184.822 43.624C184.67 43.76 184.594 43.964 184.594 44.236C184.594 44.548 184.706 44.808 184.93 45.016C185.162 45.216 185.45 45.316 185.794 45.316ZM194.378 40.336C194.466 40.144 194.606 40.048 194.798 40.048C194.918 40.048 195.026 40.088 195.122 40.168C195.218 40.248 195.266 40.348 195.266 40.468C195.266 40.54 195.25 40.604 195.218 40.66L192.878 45.7C192.83 45.804 192.758 45.888 192.662 45.952C192.566 46.008 192.462 46.036 192.35 46.036C192.246 46.036 192.146 46.008 192.05 45.952C191.954 45.888 191.878 45.804 191.822 45.7L189.494 40.66C189.462 40.604 189.446 40.544 189.446 40.48C189.446 40.36 189.498 40.256 189.602 40.168C189.714 40.08 189.834 40.036 189.962 40.036C190.042 40.036 190.118 40.06 190.19 40.108C190.27 40.156 190.33 40.224 190.37 40.312L192.374 44.812L194.378 40.336ZM200.783 44.644C200.871 44.644 200.947 44.68 201.011 44.752C201.075 44.824 201.107 44.916 201.107 45.028C201.107 45.228 200.967 45.412 200.687 45.58C200.399 45.748 200.095 45.876 199.775 45.964C199.455 46.044 199.143 46.084 198.839 46.084C197.935 46.084 197.219 45.816 196.691 45.28C196.171 44.744 195.911 44.004 195.911 43.06C195.911 42.46 196.027 41.932 196.259 41.476C196.491 41.012 196.815 40.652 197.231 40.396C197.655 40.14 198.135 40.012 198.671 40.012C199.431 40.012 200.035 40.26 200.483 40.756C200.931 41.252 201.155 41.924 201.155 42.772C201.155 42.932 201.123 43.048 201.059 43.12C200.995 43.192 200.891 43.228 200.747 43.228H196.883C196.955 44.604 197.607 45.292 198.839 45.292C199.151 45.292 199.419 45.252 199.643 45.172C199.867 45.084 200.107 44.968 200.363 44.824C200.571 44.704 200.711 44.644 200.783 44.644ZM198.683 40.768C198.171 40.768 197.759 40.928 197.447 41.248C197.143 41.568 196.963 42.02 196.907 42.604H200.303C200.287 42.012 200.139 41.56 199.859 41.248C199.579 40.928 199.187 40.768 198.683 40.768ZM208.069 40.012C209.533 40.012 210.265 40.78 210.265 42.316V45.58C210.265 45.724 210.221 45.84 210.133 45.928C210.053 46.016 209.941 46.06 209.797 46.06C209.653 46.06 209.537 46.016 209.449 45.928C209.361 45.84 209.317 45.724 209.317 45.58V45.004C209.165 45.348 208.933 45.616 208.621 45.808C208.309 45.992 207.949 46.084 207.541 46.084C207.165 46.084 206.817 46.008 206.497 45.856C206.185 45.704 205.937 45.492 205.753 45.22C205.569 44.948 205.477 44.648 205.477 44.32C205.477 43.88 205.589 43.54 205.813 43.3C206.037 43.052 206.405 42.876 206.917 42.772C207.429 42.66 208.141 42.604 209.053 42.604H209.317V42.208C209.317 41.728 209.217 41.376 209.017 41.152C208.825 40.928 208.509 40.816 208.069 40.816C207.525 40.816 206.973 40.964 206.413 41.26C206.197 41.396 206.045 41.464 205.957 41.464C205.861 41.464 205.781 41.428 205.717 41.356C205.653 41.284 205.621 41.192 205.621 41.08C205.621 40.968 205.653 40.872 205.717 40.792C205.789 40.704 205.901 40.616 206.053 40.528C206.333 40.368 206.649 40.244 207.001 40.156C207.361 40.06 207.717 40.012 208.069 40.012ZM207.673 45.316C208.153 45.316 208.545 45.156 208.849 44.836C209.161 44.508 209.317 44.088 209.317 43.576V43.228H209.101C208.397 43.228 207.861 43.26 207.493 43.324C207.125 43.38 206.861 43.48 206.701 43.624C206.549 43.76 206.473 43.964 206.473 44.236C206.473 44.548 206.585 44.808 206.809 45.016C207.041 45.216 207.329 45.316 207.673 45.316ZM221.642 40.012C222.938 40.012 223.586 40.784 223.586 42.328V45.58C223.586 45.732 223.542 45.852 223.454 45.94C223.366 46.02 223.25 46.06 223.106 46.06C222.962 46.06 222.842 46.02 222.746 45.94C222.658 45.852 222.614 45.732 222.614 45.58V42.352C222.614 41.816 222.518 41.428 222.326 41.188C222.134 40.948 221.834 40.828 221.426 40.828C220.938 40.828 220.554 40.992 220.274 41.32C219.994 41.648 219.854 42.092 219.854 42.652V45.58C219.854 45.732 219.806 45.852 219.71 45.94C219.622 46.02 219.506 46.06 219.362 46.06C219.218 46.06 219.102 46.02 219.014 45.94C218.926 45.852 218.882 45.732 218.882 45.58V42.352C218.882 41.816 218.786 41.428 218.594 41.188C218.402 40.948 218.098 40.828 217.682 40.828C217.202 40.828 216.818 40.992 216.53 41.32C216.25 41.648 216.11 42.092 216.11 42.652V45.58C216.11 45.732 216.066 45.852 215.978 45.94C215.89 46.02 215.774 46.06 215.63 46.06C215.486 46.06 215.366 46.02 215.27 45.94C215.182 45.852 215.138 45.732 215.138 45.58V40.516C215.138 40.372 215.182 40.256 215.27 40.168C215.366 40.08 215.486 40.036 215.63 40.036C215.766 40.036 215.878 40.08 215.966 40.168C216.054 40.248 216.098 40.36 216.098 40.504V41.08C216.274 40.736 216.518 40.472 216.83 40.288C217.142 40.104 217.502 40.012 217.91 40.012C218.822 40.012 219.418 40.396 219.698 41.164C219.866 40.812 220.122 40.532 220.466 40.324C220.81 40.116 221.202 40.012 221.642 40.012ZM229.881 44.644C229.969 44.644 230.045 44.68 230.109 44.752C230.173 44.824 230.205 44.916 230.205 45.028C230.205 45.228 230.065 45.412 229.785 45.58C229.497 45.748 229.193 45.876 228.873 45.964C228.553 46.044 228.241 46.084 227.937 46.084C227.033 46.084 226.317 45.816 225.789 45.28C225.269 44.744 225.009 44.004 225.009 43.06C225.009 42.46 225.125 41.932 225.357 41.476C225.589 41.012 225.913 40.652 226.329 40.396C226.753 40.14 227.233 40.012 227.769 40.012C228.529 40.012 229.133 40.26 229.581 40.756C230.029 41.252 230.253 41.924 230.253 42.772C230.253 42.932 230.221 43.048 230.157 43.12C230.093 43.192 229.989 43.228 229.845 43.228H225.981C226.053 44.604 226.705 45.292 227.937 45.292C228.249 45.292 228.517 45.252 228.741 45.172C228.965 45.084 229.205 44.968 229.461 44.824C229.669 44.704 229.809 44.644 229.881 44.644ZM227.781 40.768C227.269 40.768 226.857 40.928 226.545 41.248C226.241 41.568 226.061 42.02 226.005 42.604H229.401C229.385 42.012 229.237 41.56 228.957 41.248C228.677 40.928 228.285 40.768 227.781 40.768ZM236.209 44.644C236.297 44.644 236.373 44.68 236.437 44.752C236.501 44.824 236.533 44.916 236.533 45.028C236.533 45.228 236.393 45.412 236.113 45.58C235.825 45.748 235.521 45.876 235.201 45.964C234.881 46.044 234.569 46.084 234.265 46.084C233.361 46.084 232.645 45.816 232.117 45.28C231.597 44.744 231.337 44.004 231.337 43.06C231.337 42.46 231.453 41.932 231.685 41.476C231.917 41.012 232.241 40.652 232.657 40.396C233.081 40.14 233.561 40.012 234.097 40.012C234.857 40.012 235.461 40.26 235.909 40.756C236.357 41.252 236.581 41.924 236.581 42.772C236.581 42.932 236.549 43.048 236.485 43.12C236.421 43.192 236.317 43.228 236.173 43.228H232.309C232.381 44.604 233.033 45.292 234.265 45.292C234.577 45.292 234.845 45.252 235.069 45.172C235.293 45.084 235.533 44.968 235.789 44.824C235.997 44.704 236.137 44.644 236.209 44.644ZM234.109 40.768C233.597 40.768 233.185 40.928 232.873 41.248C232.569 41.568 232.389 42.02 232.333 42.604H235.729C235.713 42.012 235.565 41.56 235.285 41.248C235.005 40.928 234.613 40.768 234.109 40.768ZM240.678 45.292C240.958 45.316 241.098 45.444 241.098 45.676C241.098 45.812 241.046 45.916 240.942 45.988C240.846 46.052 240.698 46.076 240.498 46.06L240.174 46.036C239.534 45.988 239.062 45.796 238.758 45.46C238.454 45.124 238.302 44.616 238.302 43.936V40.924H237.498C237.362 40.924 237.254 40.892 237.174 40.828C237.102 40.756 237.066 40.664 237.066 40.552C237.066 40.432 237.102 40.336 237.174 40.264C237.254 40.192 237.362 40.156 237.498 40.156H238.302V38.8C238.302 38.648 238.346 38.532 238.434 38.452C238.522 38.364 238.642 38.32 238.794 38.32C238.938 38.32 239.054 38.364 239.142 38.452C239.23 38.532 239.274 38.648 239.274 38.8V40.156H240.606C240.734 40.156 240.834 40.192 240.906 40.264C240.986 40.336 241.026 40.432 241.026 40.552C241.026 40.664 240.986 40.756 240.906 40.828C240.834 40.892 240.734 40.924 240.606 40.924H239.274V43.984C239.274 44.424 239.362 44.744 239.538 44.944C239.722 45.136 239.994 45.244 240.354 45.268L240.678 45.292ZM242.548 46.06C242.404 46.06 242.284 46.02 242.188 45.94C242.1 45.852 242.056 45.732 242.056 45.58V40.516C242.056 40.364 242.1 40.248 242.188 40.168C242.284 40.08 242.404 40.036 242.548 40.036C242.692 40.036 242.808 40.08 242.896 40.168C242.984 40.248 243.028 40.364 243.028 40.516V45.58C243.028 45.74 242.984 45.86 242.896 45.94C242.808 46.02 242.692 46.06 242.548 46.06ZM242.548 38.776C242.356 38.776 242.2 38.72 242.08 38.608C241.96 38.496 241.9 38.348 241.9 38.164C241.9 37.988 241.96 37.844 242.08 37.732C242.2 37.62 242.356 37.564 242.548 37.564C242.74 37.564 242.896 37.62 243.016 37.732C243.136 37.844 243.196 37.988 243.196 38.164C243.196 38.348 243.136 38.496 243.016 38.608C242.896 38.72 242.74 38.776 242.548 38.776ZM247.785 40.012C249.185 40.012 249.885 40.784 249.885 42.328V45.58C249.885 45.732 249.841 45.852 249.753 45.94C249.673 46.02 249.557 46.06 249.405 46.06C249.253 46.06 249.133 46.02 249.045 45.94C248.957 45.852 248.913 45.732 248.913 45.58V42.388C248.913 41.844 248.805 41.448 248.589 41.2C248.381 40.952 248.045 40.828 247.581 40.828C247.045 40.828 246.617 40.992 246.297 41.32C245.977 41.648 245.817 42.092 245.817 42.652V45.58C245.817 45.732 245.773 45.852 245.685 45.94C245.605 46.02 245.489 46.06 245.337 46.06C245.185 46.06 245.065 46.02 244.977 45.94C244.889 45.852 244.845 45.732 244.845 45.58V40.516C244.845 40.372 244.889 40.256 244.977 40.168C245.065 40.08 245.185 40.036 245.337 40.036C245.481 40.036 245.593 40.08 245.673 40.168C245.761 40.256 245.805 40.368 245.805 40.504V41.116C245.997 40.756 246.265 40.484 246.609 40.3C246.953 40.108 247.345 40.012 247.785 40.012ZM252.146 46.06C251.954 46.06 251.794 46 251.666 45.88C251.538 45.752 251.474 45.588 251.474 45.388C251.474 45.188 251.538 45.024 251.666 44.896C251.794 44.768 251.954 44.704 252.146 44.704C252.33 44.704 252.482 44.768 252.602 44.896C252.73 45.024 252.794 45.188 252.794 45.388C252.794 45.588 252.73 45.752 252.602 45.88C252.482 46 252.33 46.06 252.146 46.06ZM254.894 46.06C254.702 46.06 254.542 46 254.414 45.88C254.286 45.752 254.222 45.588 254.222 45.388C254.222 45.188 254.286 45.024 254.414 44.896C254.542 44.768 254.702 44.704 254.894 44.704C255.078 44.704 255.23 44.768 255.35 44.896C255.478 45.024 255.542 45.188 255.542 45.388C255.542 45.588 255.478 45.752 255.35 45.88C255.23 46 255.078 46.06 254.894 46.06ZM257.642 46.06C257.45 46.06 257.29 46 257.162 45.88C257.034 45.752 256.97 45.588 256.97 45.388C256.97 45.188 257.034 45.024 257.162 44.896C257.29 44.768 257.45 44.704 257.642 44.704C257.826 44.704 257.978 44.768 258.098 44.896C258.226 45.024 258.29 45.188 258.29 45.388C258.29 45.588 258.226 45.752 258.098 45.88C257.978 46 257.826 46.06 257.642 46.06Z" fill="#234CAD"/>
<path d="M82.208 24C81.8987 24 81.6533 23.9147 81.472 23.744C81.3013 23.5733 81.216 23.3333 81.216 23.024V13.696C81.216 13.3867 81.3013 13.1467 81.472 12.976C81.6533 12.8053 81.8987 12.72 82.208 12.72H85.376C87.2213 12.72 88.6507 13.216 89.664 14.208C90.688 15.1893 91.2 16.5707 91.2 18.352C91.2 20.144 90.688 21.536 89.664 22.528C88.6507 23.5093 87.2213 24 85.376 24H82.208ZM85.248 22.32C87.84 22.32 89.136 20.9973 89.136 18.352C89.136 15.7173 87.84 14.4 85.248 14.4H83.28V22.32H85.248ZM96.4945 15.984C97.5825 15.984 98.3878 16.256 98.9105 16.8C99.4438 17.3333 99.7105 18.1493 99.7105 19.248V23.152C99.7105 23.44 99.6252 23.6693 99.4545 23.84C99.2838 24 99.0492 24.08 98.7505 24.08C98.4732 24.08 98.2438 23.9947 98.0625 23.824C97.8918 23.6533 97.8065 23.4293 97.8065 23.152V22.8C97.6252 23.216 97.3372 23.5413 96.9425 23.776C96.5585 24.0107 96.1105 24.128 95.5985 24.128C95.0758 24.128 94.6012 24.0213 94.1745 23.808C93.7478 23.5947 93.4118 23.3013 93.1665 22.928C92.9212 22.5547 92.7985 22.1387 92.7985 21.68C92.7985 21.104 92.9425 20.6507 93.2305 20.32C93.5292 19.9893 94.0092 19.7493 94.6705 19.6C95.3318 19.4507 96.2438 19.376 97.4065 19.376H97.8065V19.008C97.8065 18.4853 97.6945 18.1067 97.4705 17.872C97.2465 17.6267 96.8838 17.504 96.3825 17.504C96.0732 17.504 95.7585 17.552 95.4385 17.648C95.1185 17.7333 94.7398 17.8613 94.3025 18.032C94.0252 18.1707 93.8225 18.24 93.6945 18.24C93.5025 18.24 93.3425 18.1707 93.2145 18.032C93.0972 17.8933 93.0385 17.712 93.0385 17.488C93.0385 17.3067 93.0812 17.152 93.1665 17.024C93.2625 16.8853 93.4172 16.7573 93.6305 16.64C94.0038 16.4373 94.4465 16.2773 94.9585 16.16C95.4812 16.0427 95.9932 15.984 96.4945 15.984ZM95.9985 22.688C96.5318 22.688 96.9638 22.512 97.2945 22.16C97.6358 21.7973 97.8065 21.3333 97.8065 20.768V20.432H97.5185C96.8038 20.432 96.2492 20.464 95.8545 20.528C95.4598 20.592 95.1772 20.704 95.0065 20.864C94.8358 21.024 94.7505 21.2427 94.7505 21.52C94.7505 21.8613 94.8678 22.144 95.1025 22.368C95.3478 22.5813 95.6465 22.688 95.9985 22.688ZM106.287 15.984C107.226 15.984 107.924 16.2507 108.383 16.784C108.842 17.3173 109.071 18.1227 109.071 19.2V23.136C109.071 23.4347 108.98 23.6693 108.799 23.84C108.628 24.0107 108.388 24.096 108.079 24.096C107.77 24.096 107.524 24.0107 107.343 23.84C107.162 23.6693 107.071 23.4347 107.071 23.136V19.312C107.071 18.704 106.954 18.2613 106.719 17.984C106.495 17.7067 106.138 17.568 105.647 17.568C105.071 17.568 104.607 17.7493 104.255 18.112C103.914 18.4747 103.743 18.96 103.743 19.568V23.136C103.743 23.4347 103.652 23.6693 103.471 23.84C103.29 24.0107 103.044 24.096 102.735 24.096C102.426 24.096 102.18 24.0107 101.999 23.84C101.828 23.6693 101.743 23.4347 101.743 23.136V16.944C101.743 16.6667 101.834 16.4427 102.015 16.272C102.196 16.1013 102.442 16.016 102.751 16.016C103.028 16.016 103.252 16.1013 103.423 16.272C103.604 16.432 103.695 16.6453 103.695 16.912V17.344C103.962 16.9067 104.319 16.5707 104.767 16.336C105.215 16.1013 105.722 15.984 106.287 15.984ZM112.095 24.096C111.807 24.096 111.567 24.016 111.375 23.856C111.193 23.6853 111.103 23.4453 111.103 23.136V16.96C111.103 16.6507 111.193 16.416 111.375 16.256C111.567 16.096 111.807 16.016 112.095 16.016C112.383 16.016 112.623 16.096 112.815 16.256C113.007 16.416 113.103 16.6507 113.103 16.96V23.136C113.103 23.4453 113.007 23.6853 112.815 23.856C112.623 24.016 112.383 24.096 112.095 24.096ZM112.095 14.592C111.732 14.592 111.444 14.496 111.231 14.304C111.017 14.1013 110.911 13.84 110.911 13.52C110.911 13.2 111.017 12.944 111.231 12.752C111.444 12.56 111.732 12.464 112.095 12.464C112.447 12.464 112.729 12.56 112.943 12.752C113.167 12.944 113.279 13.2 113.279 13.52C113.279 13.84 113.172 14.1013 112.959 14.304C112.745 14.496 112.457 14.592 112.095 14.592ZM121.357 21.856C121.538 21.856 121.682 21.9253 121.789 22.064C121.906 22.2027 121.965 22.3893 121.965 22.624C121.965 22.9547 121.768 23.232 121.373 23.456C121.01 23.6587 120.6 23.824 120.141 23.952C119.682 24.0693 119.245 24.128 118.829 24.128C117.57 24.128 116.573 23.7653 115.837 23.04C115.101 22.3147 114.733 21.3227 114.733 20.064C114.733 19.264 114.893 18.5547 115.213 17.936C115.533 17.3173 115.981 16.8373 116.557 16.496C117.144 16.1547 117.805 15.984 118.541 15.984C119.245 15.984 119.858 16.1387 120.381 16.448C120.904 16.7573 121.309 17.1947 121.597 17.76C121.885 18.3253 122.029 18.992 122.029 19.76C122.029 20.2187 121.826 20.448 121.421 20.448H116.701C116.765 21.184 116.973 21.728 117.325 22.08C117.677 22.4213 118.189 22.592 118.861 22.592C119.202 22.592 119.501 22.5493 119.757 22.464C120.024 22.3787 120.322 22.2613 120.653 22.112C120.973 21.9413 121.208 21.856 121.357 21.856ZM118.589 17.392C118.045 17.392 117.608 17.5627 117.277 17.904C116.957 18.2453 116.765 18.736 116.701 19.376H120.317C120.296 18.7253 120.136 18.2347 119.837 17.904C119.538 17.5627 119.122 17.392 118.589 17.392ZM124.657 24.096C124.369 24.096 124.129 24.016 123.937 23.856C123.756 23.6853 123.665 23.4453 123.665 23.136V13.584C123.665 13.2747 123.756 13.04 123.937 12.88C124.129 12.72 124.369 12.64 124.657 12.64C124.945 12.64 125.185 12.72 125.377 12.88C125.569 13.04 125.665 13.2747 125.665 13.584V23.136C125.665 23.4453 125.569 23.6853 125.377 23.856C125.185 24.016 124.945 24.096 124.657 24.096ZM133.223 24C132.914 24 132.674 23.9147 132.503 23.744C132.333 23.5733 132.247 23.3387 132.247 23.04V13.664C132.247 13.3547 132.338 13.1093 132.519 12.928C132.711 12.736 132.962 12.64 133.271 12.64C133.591 12.64 133.842 12.736 134.023 12.928C134.215 13.1093 134.311 13.3547 134.311 13.664V22.304H138.807C139.447 22.304 139.767 22.5867 139.767 23.152C139.767 23.7173 139.447 24 138.807 24H133.223ZM146.966 16.016C147.275 16.016 147.521 16.1013 147.702 16.272C147.883 16.4427 147.974 16.672 147.974 16.96V23.168C147.974 23.4453 147.878 23.6693 147.686 23.84C147.505 24.0107 147.265 24.096 146.966 24.096C146.678 24.096 146.449 24.016 146.278 23.856C146.107 23.696 146.022 23.4773 146.022 23.2V22.8C145.777 23.2267 145.446 23.5573 145.03 23.792C144.614 24.016 144.145 24.128 143.622 24.128C141.702 24.128 140.742 23.0507 140.742 20.896V16.96C140.742 16.672 140.833 16.4427 141.014 16.272C141.195 16.1013 141.435 16.016 141.734 16.016C142.043 16.016 142.289 16.1013 142.47 16.272C142.651 16.4427 142.742 16.672 142.742 16.96V20.912C142.742 21.4667 142.854 21.8773 143.078 22.144C143.302 22.4107 143.654 22.544 144.134 22.544C144.689 22.544 145.131 22.3627 145.462 22C145.803 21.6267 145.974 21.136 145.974 20.528V16.96C145.974 16.672 146.065 16.4427 146.246 16.272C146.427 16.1013 146.667 16.016 146.966 16.016ZM157.016 22.448C157.229 22.6507 157.336 22.88 157.336 23.136C157.336 23.3813 157.245 23.6 157.064 23.792C156.893 23.984 156.69 24.08 156.456 24.08C156.221 24.08 156.002 23.984 155.8 23.792L152.056 20.4V23.136C152.056 23.4453 151.96 23.68 151.768 23.84C151.576 24 151.336 24.08 151.048 24.08C150.76 24.08 150.52 24 150.328 23.84C150.146 23.68 150.056 23.4453 150.056 23.136V13.584C150.056 13.2747 150.146 13.04 150.328 12.88C150.52 12.72 150.76 12.64 151.048 12.64C151.336 12.64 151.576 12.72 151.768 12.88C151.96 13.04 152.056 13.2747 152.056 13.584V19.6L155.48 16.32C155.672 16.128 155.89 16.032 156.136 16.032C156.381 16.032 156.594 16.1227 156.776 16.304C156.957 16.4853 157.048 16.6987 157.048 16.944C157.048 17.1893 156.946 17.4133 156.744 17.616L154.232 19.952L157.016 22.448ZM164.716 21.856C164.898 21.856 165.042 21.9253 165.148 22.064C165.266 22.2027 165.324 22.3893 165.324 22.624C165.324 22.9547 165.127 23.232 164.732 23.456C164.37 23.6587 163.959 23.824 163.5 23.952C163.042 24.0693 162.604 24.128 162.188 24.128C160.93 24.128 159.932 23.7653 159.196 23.04C158.46 22.3147 158.092 21.3227 158.092 20.064C158.092 19.264 158.252 18.5547 158.572 17.936C158.892 17.3173 159.34 16.8373 159.916 16.496C160.503 16.1547 161.164 15.984 161.9 15.984C162.604 15.984 163.218 16.1387 163.74 16.448C164.263 16.7573 164.668 17.1947 164.956 17.76C165.244 18.3253 165.388 18.992 165.388 19.76C165.388 20.2187 165.186 20.448 164.78 20.448H160.06C160.124 21.184 160.332 21.728 160.684 22.08C161.036 22.4213 161.548 22.592 162.22 22.592C162.562 22.592 162.86 22.5493 163.116 22.464C163.383 22.3787 163.682 22.2613 164.012 22.112C164.332 21.9413 164.567 21.856 164.716 21.856ZM161.948 17.392C161.404 17.392 160.967 17.5627 160.636 17.904C160.316 18.2453 160.124 18.736 160.06 19.376H163.676C163.655 18.7253 163.495 18.2347 163.196 17.904C162.898 17.5627 162.482 17.392 161.948 17.392Z" fill="#234CAD"/>
</g>
</g>
<g clip-path="url(#clip2_3155_625)">
<circle cx="30" cy="30" r="30" fill="#F2F6FF"/>
<path d="M20.484 36C20.136 36 19.86 35.904 19.656 35.712C19.464 35.52 19.368 35.25 19.368 34.902V24.408C19.368 24.06 19.464 23.79 19.656 23.598C19.86 23.406 20.136 23.31 20.484 23.31H24.048C26.124 23.31 27.732 23.868 28.872 24.984C30.024 26.088 30.6 27.642 30.6 29.646C30.6 31.662 30.024 33.228 28.872 34.344C27.732 35.448 26.124 36 24.048 36H20.484ZM23.904 34.11C26.82 34.11 28.278 32.622 28.278 29.646C28.278 26.682 26.82 25.2 23.904 25.2H21.69V34.11H23.904ZM34.0363 36C33.6883 36 33.4183 35.904 33.2263 35.712C33.0343 35.52 32.9383 35.256 32.9383 34.92V24.372C32.9383 24.024 33.0403 23.748 33.2443 23.544C33.4603 23.328 33.7423 23.22 34.0903 23.22C34.4503 23.22 34.7323 23.328 34.9363 23.544C35.1523 23.748 35.2603 24.024 35.2603 24.372V34.092H40.3183C41.0383 34.092 41.3983 34.41 41.3983 35.046C41.3983 35.682 41.0383 36 40.3183 36H34.0363Z" fill="#234CAD"/>
</g>
<g clip-path="url(#clip3_3155_625)">
<circle cx="52" cy="8" r="7" fill="#234CAD" stroke="white" stroke-width="2"/>
<path d="M53.006 9.376C53.246 9.376 53.366 9.478 53.366 9.682C53.366 9.894 53.246 10 53.006 10H50.978C50.734 10 50.612 9.894 50.612 9.682C50.612 9.478 50.734 9.376 50.978 9.376H51.602V6.64L51.026 6.994C50.97 7.026 50.92 7.042 50.876 7.042C50.792 7.042 50.72 7.006 50.66 6.934C50.604 6.862 50.576 6.782 50.576 6.694C50.576 6.578 50.628 6.488 50.732 6.424L51.662 5.848C51.782 5.776 51.896 5.74 52.004 5.74C52.116 5.74 52.206 5.774 52.274 5.842C52.342 5.91 52.376 6.004 52.376 6.124V9.376H53.006Z" fill="#F7FAFC"/>
</g>
<defs>
<clipPath id="clip0_3155_625">
<rect width="230" height="45" fill="white" transform="translate(80 8)"/>
</clipPath>
<clipPath id="clip1_3155_625">
<rect width="180" height="45" fill="white" transform="translate(80 8)"/>
</clipPath>
<clipPath id="clip2_3155_625">
<rect width="60" height="60" fill="white"/>
</clipPath>
<clipPath id="clip3_3155_625">
<rect width="16" height="16" fill="white" transform="translate(44)"/>
</clipPath>
</defs>
</svg>
