<svg width="32" height="46" viewBox="0 0 32 46" fill="none" xmlns="http://www.w3.org/2000/svg">
<path d="M6.5 20C6.5 20.8284 7.17157 21.5 8 21.5C8.82843 21.5 9.5 20.8284 9.5 20H6.5ZM22.5 20C22.5 20.8284 23.1716 21.5 24 21.5C24.8284 21.5 25.5 20.8284 25.5 20H22.5ZM8 21.5C8.82843 21.5 9.5 20.8284 9.5 20C9.5 19.1716 8.82843 18.5 8 18.5V21.5ZM24 18.5C23.1716 18.5 22.5 19.1716 22.5 20C22.5 20.8284 23.1716 21.5 24 21.5V18.5ZM8 18.5C7.17157 18.5 6.5 19.1716 6.5 20C6.5 20.8284 7.17157 21.5 8 21.5V18.5ZM24 21.5C24.8284 21.5 25.5 20.8284 25.5 20C25.5 19.1716 24.8284 18.5 24 18.5V21.5ZM9.5 20V10H6.5V20H9.5ZM9.5 10C9.5 6.41015 12.4101 3.5 16 3.5V0.5C10.7533 0.5 6.5 4.75329 6.5 10H9.5ZM16 3.5C19.5898 3.5 22.5 6.41016 22.5 10H25.5C25.5 4.75328 21.2466 0.5 16 0.5V3.5ZM22.5 10V20H25.5V10H22.5ZM8 18.5H6V21.5H8V18.5ZM6 18.5C2.96245 18.5 0.5 20.9624 0.5 24H3.5C3.5 22.6192 4.61927 21.5 6 21.5V18.5ZM0.5 24V36H3.5V24H0.5ZM0.5 36C0.5 41.2466 4.75328 45.5 10 45.5V42.5C6.41016 42.5 3.5 39.5898 3.5 36H0.5ZM10 45.5H22V42.5H10V45.5ZM22 45.5C27.2466 45.5 31.5 41.2466 31.5 36H28.5C28.5 39.5898 25.5898 42.5 22 42.5V45.5ZM31.5 36V24H28.5V36H31.5ZM31.5 24C31.5 20.9624 29.0376 18.5 26 18.5V21.5C27.3808 21.5 28.5 22.6192 28.5 24H31.5ZM26 18.5H24V21.5H26V18.5ZM8 21.5H24V18.5H8V21.5ZM15.5 32C15.5 31.7239 15.7239 31.5 16 31.5V34.5C17.3807 34.5 18.5 33.3807 18.5 32H15.5ZM16 31.5C16.2761 31.5 16.5 31.7239 16.5 32H13.5C13.5 33.3807 14.6193 34.5 16 34.5V31.5ZM16.5 32C16.5 32.2761 16.2761 32.5 16 32.5V29.5C14.6193 29.5 13.5 30.6193 13.5 32H16.5ZM16 32.5C15.7239 32.5 15.5 32.2761 15.5 32H18.5C18.5 30.6193 17.3807 29.5 16 29.5V32.5Z" fill="#234CAD"/>
</svg>
